<svg width="128" height="128" fill="none" xmlns="http://www.w3.org/2000/svg">
  <path d="M128 0H0v128h128V0Z" fill="#1D162F" />
  <path fill-rule="evenodd" clip-rule="evenodd"
    d="M25.6 6.4c-.8-.4-1.6 0-2 .8-.4.4-.4 1.2 0 1.6l-16.4 16 9.2 2.8c0 .66-.121 1.2-.23 1.685-.089.396-.17.756-.17 1.115-.4 1.2.4 1.6 1.2 1.6.8 0 1.6-.8 1.2-1.6 0-.166-.068-.468-.149-.823-.114-.502-.25-1.108-.25-1.577l2.8.8c-.192.767-.292 1.717-.388 2.631-.105.994-.204 1.944-.413 2.57-.8 1.6.4 2.4 1.2 2.4.8 0 2-.8 1.2-2.8 0-.8 0-2.8-.4-4l7.6 2.4c-.4.8 0 1.6.8 2 .2 0 .3.1.4.2.1.1.2.2.4.2.4 0 1.2-.4 1.2-.8C38 24 34.8 12 25.6 6.4ZM17.193 24h.007-.4.393Zm0 0h-.04.047-.007Zm.007 0 1.2-1.2c.263-.263.526-.7.676-.967.006.047.012.093.016.137-.257.911-.951 1.717-1.892 2.03Zm1.6-3.2c.143.428.235.754.276 1.033L17.2 24c-.587 0-1.12-.108-1.56-.303-.573-.338-.987-.937-1.24-1.696 0-.8 0-1.201.4-1.601.4-.4.8-.8 1.6-.8h.4c.883 0 1.55.433 2 1.14v.06Zm-.554 2.816c.212-.126.41-.271.554-.416.132-.264.22-.484.265-.704-.104.2-.242.39-.405.566-.129.225-.262.41-.414.554ZM16.4 18.8H16c-.784.392-1.183.784-1.575 1.176.407-.392 1.19-.784 1.974-1.176ZM27.2 27.2c-.2.2-.5.4-.8.6-.3.2-.6.4-.8.6h-.4c-1.2 0-2.4-1.2-2.8-2.4 0-1.2.8-2.8 2.4-2.8h.4c1.2 0 2.4.8 2.4 2 0 .8 0 1.6-.4 2Zm.8-7.6c-.8.8-1.6 1.6-2.8 1.6h-.8c-2 0-3.6-1.6-4-3.6 0-1.2 0-2 .8-3.2.4-.4 1.6-1.2 2.8-1.2h.8c2 0 3.6 1.6 4 3.6 0 .8-.4 2-.8 2.8Z"
    fill="#221C3A" />
  <path
    d="M111.147 61.573c.034-1.104-.476-2.016-1.138-2.036-.662-.02-1.227.858-1.261 1.962-.034 1.104.476 2.016 1.138 2.036.662.02 1.227-.858 1.261-1.962ZM111.445 64.252c.663.02 1.189.395 1.175.837-.013.441-.561.783-1.224.762-.662-.02-1.188-.394-1.175-.836.014-.442.562-.783 1.224-.763ZM106.061 61.367c.034-1.104-.475-2.016-1.138-2.036-.662-.02-1.227.858-1.261 1.962-.034 1.104.476 2.016 1.138 2.036.662.02 1.227-.858 1.261-1.962ZM102.839 64.331c.663.02 1.189.395 1.175.837-.013.441-.561.783-1.224.762-.662-.02-1.188-.394-1.175-.836.014-.442.562-.783 1.224-.763Z"
    fill="#221C3A" />
  <path fill-rule="evenodd" clip-rule="evenodd"
    d="M110.8 56.4c0-.76.161-2.004.278-2.914.068-.525.122-.94.122-1.086.4-1.2 1.2-2.4 2-2.8h.8c.8 0 1.2-.4 1.2-1.2 0-.8-.4-1.2-1.2-1.2-.8 0-1.2.4-1.2 1.2v.4c-.8.8-2 2-2.4 3.6 0 .4-.1 1.1-.2 1.8s-.2 1.4-.2 1.8l-.8-.4c-.4-.4-1.2-.4-2-.4s-1.2 0-2 .4l-1.2.4v-3.6c-.4-1.6-2-2.4-3.2-2.8 0-.8-.4-1.2-1.2-1.2-.8 0-1.2.4-1.2 1.2 0 .8.4 1.2 1.2 1.2.4 0 .8 0 1.2-.4.8 0 2 .8 2.4 2V56l-6.4 4c-1.2.8-2 2-2 3.2V74c.4.8.8 1.6 1.6 2l8 4.8c.4.4 1.2.4 2 .4s1.2 0 2-.4l8.4-4.4c.558-.279.921-.752 1.225-1.149.133-.172.254-.33.375-.45 0-.4 0-.4.4-.8V63.6c0-1.2-.8-2.4-1.6-3.2l-6.4-4Zm6.4 16-9.2 4.8c-.8.4-2 .4-2.8 0L96 71.6v-2.8l8.4 5.2c.8.4 1.6.8 2.4.8.8 0 1.6 0 2.4-.4l8.4-4.4-.4 2.4Zm.4-5.6-9.2 5.2c-.8.4-2 .4-2.8 0L96 66v-2.8c0-.8.4-1.6 1.2-2.4l8.4-4.4c.8-.4 2-.4 2.8 0l8 4.8c.8.4 1.2 1.2 1.2 2.4v3.2Z"
    fill="#221C3A" />
  <path
    d="M79.2 110.4V104h-2.8v-1.2h-3.2v1.2h-1.6v-6.4h-2.8v-1.2h-3.2v1.2h-3.2v-1.2h-3.2v1.2h-2.8v6.4h-1.6v-1.2h-3.2v1.2h-2.8v6.4h7.6v6.4h15.2v-6.4h7.6ZM27.6 60.8c-.4-.4-2.8-.8-6-.8v-7.2l-3.2-2.4s-.8.8-.4.8l2.4.8v8c-3.2 0-5.6.4-5.6 1.2v1.2s.4.4.8.4c.276 3.31 1.123 9.286 1.621 12.806.225 1.583.379 2.67.379 2.794 0 .4 1.6 1.2 3.6 1.2s3.2-.4 3.6-.8l2-15.6c.4 0 .8-.4.8-.4v-2ZM58.8 16.8H60v.4h-2v-.4l1.2-1.2H58v-.4h2v.4l-1.2 1.2ZM78 22.4c-.4-.4-1.2-.4-1.6-.4H59.2v-.4c0-1.6-1.2-2.8-2.8-2.8h-3.2c-1.6 0-2.8 1.2-2.8 2.8v.4s-.4 0-.4.4v-5.2h-1.2v13.6H50v-2.4h28v2.8h1.2V19.6H78v2.8ZM62.8 14.4h1.6v.8h-2.8v-.4l1.6-2.4h-1.6v-.8h2.8v.8l-1.6 2ZM121.6 24c0-1.2-.4-2.8-.8-4-.4-.8-1.2-.8-1.6-.4l-1.2 1.2c-1.2.8-2.8 1.2-4.4 1.2-.8 0-1.2-.8-.8-1.6.2-.4.4-.9.6-1.4.2-.5.4-1 .6-1.4v-2.4c0-.4 0-.8-.4-1.2v-.4c-.4-1.6-1.6-2.8-2.8-4-.4-.4-.8-.8-1.2-.8h-.4c-.2 0-.3-.1-.4-.2-.1-.1-.2-.2-.4-.2-.8-.4-1.6-.4-2.8-.4h-.4c-4 .4-7.6 3.6-8 7.6-.4.4-3.2 1.2-4.8 1.2H92v.4c.8 1.6 2.4 4 6.8 2.4.2.2.3.4.4.6.1.2.2.4.4.6.4.4.4.8 0 1.2-2.8 2.8-2.4 8.4.8 10.8 1.2.8 2.8 1.2 4 1.2h9.2c1.6 0 3.2 0 4.8-.8 0 0 .4 0 .4-.4 0 0 .4 0 .4-.4l.8-.8c2-1.2 2-4.8 1.6-7.6ZM110.4 95.6c0-.8 0-1.6-.4-2.4-.4-.8-1.2-1.2-2.4-1.6 1.2 0 2 .4 2.8 1.2.8.8 1.2 1.6 1.2 2.8 0 1.2-.4 2.4-1.2 3.2-.2.2-.4.3-.6.4-.2.1-.4.2-.6.4-.306.153-.553.306-.764.436-.342.211-.589.364-.836.364-.8.4-2 .8-2.8.8-.4.2-.8.3-1.2.4-.4.1-.8.2-1.2.4l-.8.8c-.4 0-.4.4-.4.4v.4c0 .4.4 1.2 1.2 2-.8-.4-1.6-.8-2-2v-.8c.23-.23.328-.328.369-.445.031-.087.031-.185.031-.355l1.2-1.2c.513-.513 1.19-.697 1.821-.868.353-.096.692-.188.979-.332.4-.2.8-.3 1.2-.4.4-.1.8-.2 1.2-.4.2 0 .4-.1.6-.2.2-.1.4-.2.6-.2 0-.247.153-.342.364-.472.13-.08.283-.175.436-.328.8-.4 1.2-1.2 1.2-2Z"
    fill="#221C3A" />
  <path
    d="M101.2 100c.2-.2.4-.3.6-.4.2-.1.4-.2.6-.4.2 0 .4-.1.6-.2.2-.1.4-.2.6-.2.287-.144.626-.236.979-.332.631-.171 1.308-.355 1.821-.868l1.2-1.2v-1.6c0 .4 0 .8-.4 1.2-.2.2-.4.3-.6.4-.2.1-.4.2-.6.4-.449.224-.899.323-1.419.437a12.75 12.75 0 0 0-1.381.363c-.2 0-.5.1-.8.2-.3.1-.6.2-.8.2a4.773 4.773 0 0 1-.489.4c-.356.266-.711.533-.711.8-.8.8-1.2 2-.8 3.2.4-1.2.8-2 1.6-2.4Z"
    fill="#221C3A" />
  <path fill-rule="evenodd" clip-rule="evenodd"
    d="M115.2 107.2s.4.4.8.4h2.4c1.6 0 2.8 1.2 2.8 2.8 0 3.2-2.4 6-6 6h-.4c-.4 0-.8 0-.8.4-.8 1.2-2 2.4-3.6 2.8-.4 0-.4.4 0 .4s1.2 0 1.6.4c.4.4.4 1.2-.4 1.2H98.4c-.8 0-.8-.8-.4-1.2.166 0 .332-.069.526-.149.274-.114.606-.251 1.074-.251.4 0 .4-.4 0-.4-3.6-1.2-6-4.8-6-10V108c0-1.2.8-2 1.6-2h18.4c.8 0 1.2.4 1.6 1.2Zm-4 2.8c0 5.2-3.2 7.2-5.6 8.4 2 0 8.4-.8 8.4-8.4v-1.6c0-.4-.4-.4-.4-.4h-2c-.2 0-.3 0-.35.05-.05.05-.05.15-.05.35v1.6Zm4.4 4c1.2-.4 2.4-2 2.4-3.6 0-.2-.1-.3-.15-.35a.149.149 0 0 1-.027-.037c.004-.013.05-.013.177-.013h-1.6c-.2 0-.3 0-.35.05-.05.05-.05.15-.05.35-.2.6-.3 1.1-.4 1.6-.1.5-.2 1-.4 1.6 0 .2 0 .3.05.35.05.05.15.05.35.05Z"
    fill="#221C3A" />
  <path
    d="M104 103.2c.4 0 .8 0 1.2-.4.4 0 .8 0 1.2-.4l2.4-1.2c.8-.4 1.2-1.2 1.6-2-.4.8-1.2 1.2-2 1.6-.214.107-.4.215-.572.314-.471.272-.842.486-1.428.486-.4 0-.7.1-1 .2-.3.1-.6.2-1 .2s-.8.4-1.2.8c-.4.4-.4 1.6 0 2 0-.8.4-1.6.8-1.6ZM30.4 105.6H32v.8h-.8l-8 12.4v1.2h-.8v-1.6l7.6-12h-.4l-7.504 11.848L21.6 118l7.6-12h-.8v-.8h.4L20 96.4l-.4.8-1.2 5.6-2.4-2c-.2 0-.4.1-.6.2-.2.1-.4.2-.6.2-1.2 0-2.4-.8-2.4-2 0-.4 0-.8.4-1.2l-2.4-2 5.2-2 3.6-2.8 3.2 2.4-1.6 2.4 9.6 9.6Z"
    fill="#221C3A" />
  <path
    d="m22.096 118.248.304.152H22l.096-.152ZM25.6 120.4h-6c-.4 0-.4.4-.4.4v.4c0 .4.4.4.4.4h5.6c.4 0 .4-.4.4-.4v-.4c.4-.4 0-.4 0-.4ZM62.8 61.6l-6-6v-2.4L58 52l.4.4-1.2 1.2v1.6l6 6h1.6l6-6v-1.6l-6-6h-2L60 50.8l-.4-.4 3.2-3.2h2.4l6 6v2.4l-6 6h-2.4Z"
    fill="#221C3A" />
  <path fill-rule="evenodd" clip-rule="evenodd"
    d="M59.2 52c-.4 0-.8-.4-.8-.8s.4-.8.8-.8.8.4.8.8c.4.4 0 .8-.8.8Zm0-1.2c-.4.4 0 .8 0 .8s.4-.4 0-.8ZM55.2 71.6h-2l-6.4-6.4v-2l6.4-6.4h2l3.28 3.281A.708.708 0 0 1 58.8 60c.4 0 .8.4.8.8s0 .8-.8.8c-.4 0-.8-.4-.8-.8 0-.109.03-.218.08-.319l-2.88-2.88h-2l-5.6 5.6v2l5.6 5.6h2l5.6-5.6v-2L60 62l.4-.4.8 1.2.4.4v2l-6.4 6.4Zm3.592-11.192c-.387.397.008.792.008.792s.4 0 0-.8l-.008.008ZM72.8 71.6h2l6.4-6.4v-2l-3.281-3.28a.708.708 0 0 0 .08-.32c0-.4-.4-.8-.8-.8s-.8.4-.8.8.4.8.8.8c.11 0 .219-.03.32-.08l2.88 2.88v2l-5.6 5.6h-2l-5.6-5.6v-2l5.6-5.6h2l.8.8.4-.4-1.2-1.2h-2l-6.4 6.4v2l6.4 6.4ZM77.2 60s.4-.4 0-.8c-.4.4 0 .8 0 .8Z"
    fill="#221C3A" />
  <path
    d="m71.2 75.2-6 6h-2.4l-6-6v-2.4l3.2-3.2.4.4-3.2 2.8v2l6 6h2l5.6-6v-2l-5.6-5.6h-2L62 68.4l-.4-.4 1.2-1.2h2.4l6 6v2.4Z"
    fill="#221C3A" />
  <path fill-rule="evenodd" clip-rule="evenodd"
    d="M60.8 70c-.4 0-.8-.4-.8-.8s.4-.8.8-.8.8.4.8.8-.4.8-.8.8Zm0-1.2c-.4.4 0 .8 0 .8s.4 0 0-.8ZM65.2 52.4c-.4 0-.8-.4-.8-.8s.4-.8.8-.8.8.4.8.8c.187.188.2.375.077.521l1.461 1.465-.283.283-1.534-1.538c-.144.044-.32.07-.521.07Zm0-1.2c-.4.4 0 .8 0 .8s.4-.4 0-.8ZM68 55.2c-.4 0-.8-.4-.8-.8s.4-.8.8-.8.8.4.8.8-.4.8-.8.8Zm0-1.2c-.4.4 0 .8 0 .8s.4-.4 0-.8ZM51.6 67.2c0 .4.4.8.8.8a.79.79 0 0 0 .52-.22l.68 1.02 1.05-1.05c.15.15.35.25.55.25.4 0 .8-.4.8-.8s-.4-.8-.8-.8-.8.4-.8.8l-.8.8-.4-.8c0-.4-.4-.8-.8-.8s-.8.4-.8.8Zm.8-.4c-.4.4 0 .8 0 .8.4 0 .4-.4 0-.8Zm2.8 0c-.4.4 0 .8 0 .8s.4-.4 0-.8ZM60.8 76.4c-.4 0-.8-.4-.8-.8s.4-.8.8-.8.8.4.8.8c.172.173.122.345-.024.486l1.492 1.495-.283.282-1.558-1.56c-.15.06-.306.097-.427.097Zm0-1.2c-.4.4 0 .8 0 .8s.4 0 0-.8ZM63.6 79.2c-.4 0-.8-.4-.8-.8s.4-.8.8-.8.8.4.8.8-.4.8-.8.8Zm0-1.2c-.4.4 0 .8 0 .8s.4-.4 0-.8ZM70.65 63.35c.15.15.35.25.55.25.4 0 .8-.4.8-.8s-.4-.8-.8-.8-.8.4-.8.8L69.2 64l1.2 1.2.4-.4-.8-.8.65-.65Zm.55-.95c-.4.4 0 .8 0 .8v-.8Z"
    fill="#221C3A" />
  <path fill-rule="evenodd" clip-rule="evenodd"
    d="M70.4 65.6c0 .4.4.8.8.8s.8-.4.8-.8-.4-.8-.8-.8-.8.4-.8.8Zm.8-.4c-.4.4 0 .8 0 .8v-.8Z" fill="#221C3A" />
</svg>
