<svg width="1245" height="730" viewBox="0 0 1245 730" fill="none" xmlns="http://www.w3.org/2000/svg">
<path d="M565 360L865 360" stroke="black" stroke-width="15" stroke-dasharray="5 5"/>
<path d="M1180 40H1054.14C1045.23 40 1040.77 50.7714 1047.07 57.0711L1097.07 107.071C1098.95 108.946 1101.49 110 1104.14 110H1140C1145.52 110 1150 114.477 1150 120V163.82C1150 171.253 1157.82 176.088 1164.47 172.764L1184.47 162.764C1187.86 161.07 1190 157.607 1190 153.82V50C1190 44.4772 1185.52 40 1180 40Z" fill="black"/>
<path d="M1098.16 67.2L1091.05 84H1085.48L1078.38 67.2H1084.48L1088.48 77.016L1092.59 67.2H1098.16ZM1112.69 79.728V84H1098.72V67.2H1112.38V71.472H1104.29V73.44H1111.39V77.52H1104.29V79.728H1112.69ZM1099.75 61.992H1104.91L1108.08 65.832H1104.48L1099.75 61.992ZM1122.07 79.776H1120.53V84H1114.87V67.2H1122.96C1124.51 67.2 1125.86 67.456 1127.01 67.968C1128.16 68.48 1129.05 69.216 1129.68 70.176C1130.3 71.136 1130.61 72.256 1130.61 73.536C1130.61 74.736 1130.34 75.784 1129.8 76.68C1129.25 77.576 1128.47 78.288 1127.44 78.816L1130.97 84H1124.92L1122.07 79.776ZM1124.9 73.536C1124.9 72.912 1124.71 72.432 1124.32 72.096C1123.94 71.744 1123.36 71.568 1122.6 71.568H1120.53V75.504H1122.6C1123.36 75.504 1123.94 75.336 1124.32 75C1124.71 74.648 1124.9 74.16 1124.9 73.536ZM1136.16 71.592H1131.24V67.2H1146.75V71.592H1141.83V84H1136.16V71.592ZM1162.19 79.728V84H1148.22V67.2H1161.88V71.472H1153.79V73.44H1160.89V77.52H1153.79V79.728H1162.19ZM1174.88 84L1171.98 79.512L1169.15 84H1162.69L1168.76 75.528L1162.91 67.2H1169.27L1172.12 71.424L1174.91 67.2H1181L1175.17 75.312L1181.36 84H1174.88Z" fill="white"/>
<path d="M960 382.5V387.5M820 382.5V387.5M750 382.5V387.5M890 382.5V387.5" stroke="black" stroke-width="20"/>
<g opacity="0.3333">
<path d="M949.53 643.835L954.379 576.761C954.736 571.824 951.428 567.369 946.599 566.283L876.286 550.474C874.897 550.162 873.457 550.149 872.063 550.438L664.12 593.54C658.981 594.605 655.54 599.46 656.238 604.661L663.721 660.461C664.435 665.787 669.231 669.597 674.581 669.087L868.014 650.645L939.21 653.108C944.584 653.294 949.142 649.198 949.53 643.835Z" fill="black"/>
<path d="M747.385 628.576C744.673 628.576 742.237 628.012 740.077 626.884C737.917 625.756 736.225 624.196 735.001 622.204C733.777 620.188 733.165 617.92 733.165 615.4C733.165 612.88 733.777 610.624 735.001 608.632C736.225 606.616 737.917 605.044 740.077 603.916C742.237 602.788 744.673 602.224 747.385 602.224C750.097 602.224 752.533 602.788 754.693 603.916C756.853 605.044 758.545 606.616 759.769 608.632C760.993 610.624 761.605 612.88 761.605 615.4C761.605 617.92 760.993 620.188 759.769 622.204C758.545 624.196 756.853 625.756 754.693 626.884C752.533 628.012 750.097 628.576 747.385 628.576ZM747.385 621.7C748.441 621.7 749.389 621.448 750.229 620.944C751.093 620.416 751.777 619.684 752.281 618.748C752.785 617.788 753.037 616.672 753.037 615.4C753.037 614.128 752.785 613.024 752.281 612.088C751.777 611.128 751.093 610.396 750.229 609.892C749.389 609.364 748.441 609.1 747.385 609.1C746.329 609.1 745.369 609.364 744.505 609.892C743.665 610.396 742.993 611.128 742.489 612.088C741.985 613.024 741.733 614.128 741.733 615.4C741.733 616.672 741.985 617.788 742.489 618.748C742.993 619.684 743.665 620.416 744.505 620.944C745.369 621.448 746.329 621.7 747.385 621.7ZM787.189 628L787.117 616.516L781.645 625.732H777.901L772.429 616.912V628H764.689V602.8H771.673L779.881 616.228L787.873 602.8H794.857L794.929 628H787.189ZM819.988 621.592V628H799.036V602.8H819.52V609.208H807.388V612.16H818.044V618.28H807.388V621.592H819.988ZM839.927 614.716H847.307V625.372C845.819 626.404 844.091 627.196 842.123 627.748C840.155 628.3 838.223 628.576 836.327 628.576C833.639 628.576 831.227 628.024 829.091 626.92C826.955 625.792 825.275 624.232 824.051 622.24C822.851 620.224 822.251 617.944 822.251 615.4C822.251 612.856 822.851 610.588 824.051 608.596C825.275 606.58 826.967 605.02 829.127 603.916C831.311 602.788 833.771 602.224 836.507 602.224C838.979 602.224 841.187 602.644 843.131 603.484C845.099 604.3 846.731 605.5 848.027 607.084L842.591 611.872C841.007 610.024 839.123 609.1 836.939 609.1C835.067 609.1 833.579 609.664 832.475 610.792C831.371 611.92 830.819 613.456 830.819 615.4C830.819 617.296 831.359 618.82 832.439 619.972C833.543 621.124 835.007 621.7 836.831 621.7C837.911 621.7 838.943 621.496 839.927 621.088V614.716ZM868.099 623.608H858.523L856.831 628H848.191L859.207 602.8H867.559L878.575 628H869.791L868.099 623.608ZM865.759 617.488L863.311 611.152L860.863 617.488H865.759Z" fill="white"/>
</g>
<g opacity="0.3333">
<path d="M305 480V549.06C305 554.936 310.043 559.546 315.896 559.019L495.896 542.819C501.051 542.355 505 538.035 505 532.86V480C505 474.477 500.523 470 495 470H315C309.477 470 305 474.477 305 480Z" fill="black"/>
<path d="M321.798 497.8H330.294V516.412H341.67V523H321.798V497.8ZM344.017 497.8H352.513V523H344.017V497.8ZM376.763 509.824C378.251 510.376 379.403 511.18 380.219 512.236C381.035 513.292 381.443 514.564 381.443 516.052C381.443 518.26 380.531 519.976 378.707 521.2C376.883 522.4 374.243 523 370.787 523H356.603V497.8H370.067C373.427 497.8 375.959 498.4 377.663 499.6C379.391 500.8 380.255 502.396 380.255 504.388C380.255 505.564 379.955 506.62 379.355 507.556C378.779 508.492 377.915 509.248 376.763 509.824ZM364.955 503.74V507.484H368.915C370.763 507.484 371.687 506.86 371.687 505.612C371.687 504.364 370.763 503.74 368.915 503.74H364.955ZM370.067 517.06C371.939 517.06 372.875 516.4 372.875 515.08C372.875 513.76 371.939 513.1 370.067 513.1H364.955V517.06H370.067ZM395.247 516.664H392.943V523H384.447V497.8H396.579C398.907 497.8 400.935 498.184 402.663 498.952C404.391 499.72 405.723 500.824 406.659 502.264C407.595 503.704 408.063 505.384 408.063 507.304C408.063 509.104 407.655 510.676 406.839 512.02C406.023 513.364 404.847 514.432 403.311 515.224L408.603 523H399.531L395.247 516.664ZM399.495 507.304C399.495 506.368 399.207 505.648 398.631 505.144C398.055 504.616 397.191 504.352 396.039 504.352H392.943V510.256H396.039C397.191 510.256 398.055 510.004 398.631 509.5C399.207 508.972 399.495 508.24 399.495 507.304ZM428.443 518.608H418.867L417.175 523H408.535L419.551 497.8H427.903L438.919 523H430.135L428.443 518.608ZM426.103 512.488L423.655 506.152L421.207 512.488H426.103ZM451.075 516.664H448.771V523H440.275V497.8H452.407C454.735 497.8 456.763 498.184 458.491 498.952C460.219 499.72 461.551 500.824 462.487 502.264C463.423 503.704 463.891 505.384 463.891 507.304C463.891 509.104 463.483 510.676 462.667 512.02C461.851 513.364 460.675 514.432 459.139 515.224L464.431 523H455.359L451.075 516.664ZM455.323 507.304C455.323 506.368 455.035 505.648 454.459 505.144C453.883 504.616 453.019 504.352 451.867 504.352H448.771V510.256H451.867C453.019 510.256 453.883 510.004 454.459 509.5C455.035 508.972 455.323 508.24 455.323 507.304ZM481.723 513.856V523H473.227V513.748L463.723 497.8H472.687L477.835 506.512L483.019 497.8H491.227L481.723 513.856Z" fill="white"/>
</g>
<g opacity="0.3333">
<circle cx="150" cy="555" r="65" fill="black"/>
<path d="M114.744 546.5V564H109.894L103.244 556.05V564H97.4943V546.5H102.344L108.994 554.45V546.5H114.744ZM132.137 559.55V564H117.587V546.5H131.812V550.95H123.387V553H130.787V557.25H123.387V559.55H132.137ZM145.361 564L142.336 559.325L139.386 564H132.661L138.986 555.175L132.886 546.5H139.511L142.486 550.9L145.386 546.5H151.736L145.661 554.95L152.111 564H145.361ZM161.46 564.4C158.777 564.4 156.685 563.675 155.185 562.225C153.685 560.775 152.935 558.742 152.935 556.125V546.5H158.835V555.95C158.835 557.233 159.06 558.167 159.51 558.75C159.977 559.333 160.643 559.625 161.51 559.625C162.377 559.625 163.035 559.333 163.485 558.75C163.952 558.167 164.185 557.233 164.185 555.95V546.5H169.985V556.125C169.985 558.742 169.235 560.775 167.735 562.225C166.235 563.675 164.143 564.4 161.46 564.4ZM179.215 564.4C177.765 564.4 176.348 564.242 174.965 563.925C173.598 563.592 172.473 563.15 171.59 562.6L173.49 558.3C174.323 558.783 175.256 559.175 176.29 559.475C177.323 559.758 178.315 559.9 179.265 559.9C180.081 559.9 180.665 559.825 181.015 559.675C181.365 559.508 181.54 559.267 181.54 558.95C181.54 558.583 181.306 558.308 180.84 558.125C180.39 557.942 179.64 557.742 178.59 557.525C177.24 557.242 176.115 556.942 175.215 556.625C174.315 556.292 173.531 555.758 172.865 555.025C172.198 554.275 171.865 553.267 171.865 552C171.865 550.9 172.173 549.9 172.79 549C173.406 548.1 174.323 547.392 175.54 546.875C176.773 546.358 178.265 546.1 180.015 546.1C181.215 546.1 182.39 546.233 183.54 546.5C184.706 546.75 185.731 547.125 186.615 547.625L184.84 551.9C183.123 551.033 181.498 550.6 179.965 550.6C178.448 550.6 177.69 550.967 177.69 551.7C177.69 552.05 177.915 552.317 178.365 552.5C178.815 552.667 179.556 552.85 180.59 553.05C181.923 553.3 183.048 553.592 183.965 553.925C184.881 554.242 185.673 554.767 186.34 555.5C187.023 556.233 187.365 557.233 187.365 558.5C187.365 559.6 187.056 560.6 186.44 561.5C185.823 562.383 184.898 563.092 183.665 563.625C182.448 564.142 180.965 564.4 179.215 564.4ZM196.615 546.5H202.515V564H196.615V546.5Z" fill="white"/>
</g>
<g opacity="0.3333">
<path d="M835 160H735C729.477 160 725 164.477 725 170V210C725 215.523 729.477 220 735 220H835C840.523 220 845 215.523 845 210V170C845 164.477 840.523 160 835 160Z" fill="black"/>
<path d="M775.721 203.576C773.705 203.576 771.833 203.264 770.105 202.64C768.401 201.992 766.913 201.08 765.641 199.904C764.393 198.728 763.421 197.336 762.725 195.728C762.029 194.12 761.681 192.344 761.681 190.4C761.681 188.456 762.029 186.68 762.725 185.072C763.421 183.464 764.393 182.072 765.641 180.896C766.913 179.72 768.401 178.82 770.105 178.196C771.833 177.548 773.705 177.224 775.721 177.224C778.193 177.224 780.377 177.656 782.273 178.52C784.193 179.384 785.777 180.632 787.025 182.264L781.661 187.052C780.917 186.116 780.089 185.396 779.177 184.892C778.289 184.364 777.281 184.1 776.153 184.1C775.265 184.1 774.461 184.244 773.741 184.532C773.021 184.82 772.397 185.24 771.869 185.792C771.365 186.344 770.969 187.016 770.681 187.808C770.393 188.576 770.249 189.44 770.249 190.4C770.249 191.36 770.393 192.236 770.681 193.028C770.969 193.796 771.365 194.456 771.869 195.008C772.397 195.56 773.021 195.98 773.741 196.268C774.461 196.556 775.265 196.7 776.153 196.7C777.281 196.7 778.289 196.448 779.177 195.944C780.089 195.416 780.917 194.684 781.661 193.748L787.025 198.536C785.777 200.144 784.193 201.392 782.273 202.28C780.377 203.144 778.193 203.576 775.721 203.576ZM797.19 203.576C795.462 203.576 793.71 203.384 791.934 203C790.158 202.616 788.598 202.052 787.254 201.308L790.134 195.044C791.214 195.668 792.342 196.136 793.518 196.448C794.694 196.736 795.81 196.88 796.866 196.88C797.826 196.88 798.618 196.712 799.242 196.376C799.866 196.04 800.178 195.548 800.178 194.9C800.178 194.54 800.07 194.228 799.854 193.964C799.638 193.676 799.254 193.46 798.702 193.316C798.174 193.172 797.394 193.1 796.362 193.1H789.054L790.314 177.8H807.054V184.208H793.302L797.586 180.572L796.83 190.328L792.546 186.692H798.414C800.91 186.692 802.902 187.052 804.39 187.772C805.902 188.492 806.994 189.464 807.666 190.688C808.362 191.888 808.71 193.232 808.71 194.72C808.71 196.208 808.302 197.636 807.486 199.004C806.694 200.348 805.446 201.452 803.742 202.316C802.062 203.156 799.878 203.576 797.19 203.576Z" fill="white"/>
</g>
<g opacity="0.3333">
<path d="M775 240H735C729.477 240 725 244.477 725 250V290C725 295.523 729.477 300 735 300H775C780.523 300 785 295.523 785 290V250C785 244.477 780.523 240 775 240Z" fill="black"/>
<path d="M731.986 283V257.8H745.45C748.93 257.8 751.498 258.424 753.154 259.672C754.81 260.896 755.638 262.468 755.638 264.388C755.638 265.66 755.278 266.8 754.558 267.808C753.862 268.792 752.842 269.572 751.498 270.148C750.154 270.724 748.498 271.012 746.53 271.012L747.25 269.068C749.218 269.068 750.91 269.344 752.326 269.896C753.766 270.448 754.87 271.252 755.638 272.308C756.43 273.34 756.826 274.588 756.826 276.052C756.826 278.236 755.914 279.94 754.09 281.164C752.29 282.388 749.65 283 746.17 283H731.986ZM740.338 277.06H745.45C746.386 277.06 747.082 276.892 747.538 276.556C748.018 276.22 748.258 275.728 748.258 275.08C748.258 274.432 748.018 273.94 747.538 273.604C747.082 273.268 746.386 273.1 745.45 273.1H739.762V267.484H744.298C745.258 267.484 745.954 267.328 746.386 267.016C746.842 266.68 747.07 266.212 747.07 265.612C747.07 264.988 746.842 264.52 746.386 264.208C745.954 263.896 745.258 263.74 744.298 263.74H740.338V277.06ZM767.893 283.576C766.165 283.576 764.413 283.384 762.637 283C760.861 282.616 759.301 282.052 757.957 281.308L760.837 275.044C761.917 275.668 763.045 276.136 764.221 276.448C765.397 276.736 766.513 276.88 767.569 276.88C768.529 276.88 769.321 276.712 769.945 276.376C770.569 276.04 770.881 275.548 770.881 274.9C770.881 274.54 770.773 274.228 770.557 273.964C770.341 273.676 769.957 273.46 769.405 273.316C768.877 273.172 768.097 273.1 767.065 273.1H759.757L761.017 257.8H777.757V264.208H764.005L768.289 260.572L767.533 270.328L763.249 266.692H769.117C771.613 266.692 773.605 267.052 775.093 267.772C776.605 268.492 777.697 269.464 778.369 270.688C779.065 271.888 779.413 273.232 779.413 274.72C779.413 276.208 779.005 277.636 778.189 279.004C777.397 280.348 776.149 281.452 774.445 282.316C772.765 283.156 770.581 283.576 767.893 283.576Z" fill="white"/>
</g>
<path d="M835 320H735C729.477 320 725 324.477 725 330V370C725 375.523 729.477 380 735 380H835C840.523 380 845 375.523 845 370V330C845 324.477 840.523 320 835 320Z" fill="black"/>
<path d="M758.67 363L769.686 337.8H778.038L789.054 363H780.27L772.134 341.832H775.446L767.31 363H758.67ZM765.222 358.608L767.382 352.488H778.974L781.134 358.608H765.222ZM798.473 363.576C796.745 363.576 794.993 363.384 793.217 363C791.441 362.616 789.881 362.052 788.537 361.308L791.417 355.044C792.497 355.668 793.625 356.136 794.801 356.448C795.977 356.736 797.093 356.88 798.149 356.88C799.109 356.88 799.901 356.712 800.525 356.376C801.149 356.04 801.461 355.548 801.461 354.9C801.461 354.54 801.353 354.228 801.137 353.964C800.921 353.676 800.537 353.46 799.985 353.316C799.457 353.172 798.677 353.1 797.645 353.1H790.337L791.597 337.8H808.337V344.208H794.585L798.869 340.572L798.113 350.328L793.829 346.692H799.697C802.193 346.692 804.185 347.052 805.673 347.772C807.185 348.492 808.277 349.464 808.949 350.688C809.645 351.888 809.993 353.232 809.993 354.72C809.993 356.208 809.585 357.636 808.769 359.004C807.977 360.348 806.729 361.452 805.025 362.316C803.345 363.156 801.161 363.576 798.473 363.576Z" fill="white"/>
<path d="M975 320H875C869.477 320 865 324.477 865 330V370C865 375.523 869.477 380 875 380H975C980.523 380 985 375.523 985 370V330C985 324.477 980.523 320 975 320Z" fill="black"/>
<path d="M898.177 363L909.193 337.8H917.545L928.561 363H919.777L911.641 341.832H914.953L906.817 363H898.177ZM904.729 358.608L906.889 352.488H918.481L920.641 358.608H904.729ZM940.478 363.576C938.078 363.576 935.966 363.12 934.142 362.208C932.342 361.272 930.926 359.892 929.894 358.068C928.886 356.22 928.382 353.928 928.382 351.192C928.382 348.24 928.97 345.732 930.146 343.668C931.322 341.58 932.954 339.984 935.042 338.88C937.154 337.776 939.59 337.224 942.35 337.224C943.838 337.224 945.266 337.404 946.634 337.764C948.026 338.1 949.202 338.58 950.162 339.204L947.102 345.144C946.358 344.616 945.602 344.268 944.834 344.1C944.09 343.908 943.322 343.812 942.53 343.812C940.826 343.812 939.458 344.328 938.426 345.36C937.418 346.368 936.914 347.844 936.914 349.788C936.914 350.148 936.914 350.508 936.914 350.868C936.914 351.204 936.914 351.552 936.914 351.912L934.97 350.508C935.45 349.692 936.014 349.008 936.662 348.456C937.31 347.88 938.078 347.448 938.966 347.16C939.854 346.848 940.886 346.692 942.062 346.692C943.598 346.692 945.014 347.028 946.31 347.7C947.63 348.348 948.686 349.272 949.478 350.472C950.294 351.672 950.702 353.1 950.702 354.756C950.702 356.556 950.246 358.116 949.334 359.436C948.422 360.756 947.186 361.776 945.626 362.496C944.09 363.216 942.374 363.576 940.478 363.576ZM939.902 357.708C940.406 357.708 940.85 357.612 941.234 357.42C941.642 357.204 941.954 356.904 942.17 356.52C942.386 356.136 942.494 355.68 942.494 355.152C942.494 354.36 942.254 353.736 941.774 353.28C941.294 352.8 940.67 352.56 939.902 352.56C939.398 352.56 938.954 352.668 938.57 352.884C938.186 353.1 937.874 353.4 937.634 353.784C937.418 354.168 937.31 354.624 937.31 355.152C937.31 355.68 937.418 356.136 937.634 356.52C937.874 356.904 938.186 357.204 938.57 357.42C938.954 357.612 939.398 357.708 939.902 357.708Z" fill="white"/>
<g opacity="0.3333">
<path d="M975 240H935C929.477 240 925 244.477 925 250V290C925 295.523 929.477 300 935 300H975C980.523 300 985 295.523 985 290V250C985 244.477 980.523 240 975 240Z" fill="black"/>
<path d="M931.23 283V257.8H944.694C948.174 257.8 950.742 258.424 952.398 259.672C954.054 260.896 954.882 262.468 954.882 264.388C954.882 265.66 954.522 266.8 953.802 267.808C953.106 268.792 952.086 269.572 950.742 270.148C949.398 270.724 947.742 271.012 945.774 271.012L946.494 269.068C948.462 269.068 950.154 269.344 951.57 269.896C953.01 270.448 954.114 271.252 954.882 272.308C955.674 273.34 956.07 274.588 956.07 276.052C956.07 278.236 955.158 279.94 953.334 281.164C951.534 282.388 948.894 283 945.414 283H931.23ZM939.582 277.06H944.694C945.63 277.06 946.326 276.892 946.782 276.556C947.262 276.22 947.502 275.728 947.502 275.08C947.502 274.432 947.262 273.94 946.782 273.604C946.326 273.268 945.63 273.1 944.694 273.1H939.006V267.484H943.542C944.502 267.484 945.198 267.328 945.63 267.016C946.086 266.68 946.314 266.212 946.314 265.612C946.314 264.988 946.086 264.52 945.63 264.208C945.198 263.896 944.502 263.74 943.542 263.74H939.582V277.06ZM970.161 283.576C967.761 283.576 965.649 283.12 963.825 282.208C962.025 281.272 960.609 279.892 959.577 278.068C958.569 276.22 958.065 273.928 958.065 271.192C958.065 268.24 958.653 265.732 959.829 263.668C961.005 261.58 962.637 259.984 964.725 258.88C966.837 257.776 969.273 257.224 972.033 257.224C973.521 257.224 974.949 257.404 976.317 257.764C977.709 258.1 978.885 258.58 979.845 259.204L976.785 265.144C976.041 264.616 975.285 264.268 974.517 264.1C973.773 263.908 973.005 263.812 972.213 263.812C970.509 263.812 969.141 264.328 968.109 265.36C967.101 266.368 966.597 267.844 966.597 269.788C966.597 270.148 966.597 270.508 966.597 270.868C966.597 271.204 966.597 271.552 966.597 271.912L964.653 270.508C965.133 269.692 965.697 269.008 966.345 268.456C966.993 267.88 967.761 267.448 968.649 267.16C969.537 266.848 970.569 266.692 971.745 266.692C973.281 266.692 974.697 267.028 975.993 267.7C977.313 268.348 978.369 269.272 979.161 270.472C979.977 271.672 980.385 273.1 980.385 274.756C980.385 276.556 979.929 278.116 979.017 279.436C978.105 280.756 976.869 281.776 975.309 282.496C973.773 283.216 972.057 283.576 970.161 283.576ZM969.585 277.708C970.089 277.708 970.533 277.612 970.917 277.42C971.325 277.204 971.637 276.904 971.853 276.52C972.069 276.136 972.177 275.68 972.177 275.152C972.177 274.36 971.937 273.736 971.457 273.28C970.977 272.8 970.353 272.56 969.585 272.56C969.081 272.56 968.637 272.668 968.253 272.884C967.869 273.1 967.557 273.4 967.317 273.784C967.101 274.168 966.993 274.624 966.993 275.152C966.993 275.68 967.101 276.136 967.317 276.52C967.557 276.904 967.869 277.204 968.253 277.42C968.637 277.612 969.081 277.708 969.585 277.708Z" fill="white"/>
</g>
<g opacity="0.3333">
<path d="M975 160H875C869.477 160 865 164.477 865 170V210C865 215.523 869.477 220 875 220H975C980.523 220 985 215.523 985 210V170C985 164.477 980.523 160 975 160Z" fill="black"/>
<path d="M915.07 203.576C913.054 203.576 911.182 203.264 909.454 202.64C907.75 201.992 906.262 201.08 904.99 199.904C903.742 198.728 902.77 197.336 902.074 195.728C901.378 194.12 901.03 192.344 901.03 190.4C901.03 188.456 901.378 186.68 902.074 185.072C902.77 183.464 903.742 182.072 904.99 180.896C906.262 179.72 907.75 178.82 909.454 178.196C911.182 177.548 913.054 177.224 915.07 177.224C917.542 177.224 919.726 177.656 921.622 178.52C923.542 179.384 925.126 180.632 926.374 182.264L921.01 187.052C920.266 186.116 919.438 185.396 918.526 184.892C917.638 184.364 916.63 184.1 915.502 184.1C914.614 184.1 913.81 184.244 913.09 184.532C912.37 184.82 911.746 185.24 911.218 185.792C910.714 186.344 910.318 187.016 910.03 187.808C909.742 188.576 909.598 189.44 909.598 190.4C909.598 191.36 909.742 192.236 910.03 193.028C910.318 193.796 910.714 194.456 911.218 195.008C911.746 195.56 912.37 195.98 913.09 196.268C913.81 196.556 914.614 196.7 915.502 196.7C916.63 196.7 917.638 196.448 918.526 195.944C919.438 195.416 920.266 194.684 921.01 193.748L926.374 198.536C925.126 200.144 923.542 201.392 921.622 202.28C919.726 203.144 917.542 203.576 915.07 203.576ZM939.353 203.576C936.953 203.576 934.841 203.12 933.017 202.208C931.217 201.272 929.801 199.892 928.769 198.068C927.761 196.22 927.257 193.928 927.257 191.192C927.257 188.24 927.845 185.732 929.021 183.668C930.197 181.58 931.829 179.984 933.917 178.88C936.029 177.776 938.465 177.224 941.225 177.224C942.713 177.224 944.141 177.404 945.509 177.764C946.901 178.1 948.077 178.58 949.037 179.204L945.977 185.144C945.233 184.616 944.477 184.268 943.709 184.1C942.965 183.908 942.197 183.812 941.405 183.812C939.701 183.812 938.333 184.328 937.301 185.36C936.293 186.368 935.789 187.844 935.789 189.788C935.789 190.148 935.789 190.508 935.789 190.868C935.789 191.204 935.789 191.552 935.789 191.912L933.845 190.508C934.325 189.692 934.889 189.008 935.537 188.456C936.185 187.88 936.953 187.448 937.841 187.16C938.729 186.848 939.761 186.692 940.937 186.692C942.473 186.692 943.889 187.028 945.185 187.7C946.505 188.348 947.561 189.272 948.353 190.472C949.169 191.672 949.577 193.1 949.577 194.756C949.577 196.556 949.121 198.116 948.209 199.436C947.297 200.756 946.061 201.776 944.501 202.496C942.965 203.216 941.249 203.576 939.353 203.576ZM938.777 197.708C939.281 197.708 939.725 197.612 940.109 197.42C940.517 197.204 940.829 196.904 941.045 196.52C941.261 196.136 941.369 195.68 941.369 195.152C941.369 194.36 941.129 193.736 940.649 193.28C940.169 192.8 939.545 192.56 938.777 192.56C938.273 192.56 937.829 192.668 937.445 192.884C937.061 193.1 936.749 193.4 936.509 193.784C936.293 194.168 936.185 194.624 936.185 195.152C936.185 195.68 936.293 196.136 936.509 196.52C936.749 196.904 937.061 197.204 937.445 197.42C937.829 197.612 938.273 197.708 938.777 197.708Z" fill="white"/>
</g>
<g opacity="0.3333">
<path d="M555 160H455C449.477 160 445 164.477 445 170V210C445 215.523 449.477 220 455 220H555C560.523 220 565 215.523 565 210V170C565 164.477 560.523 160 555 160Z" fill="black"/>
<path d="M495.633 203.576C493.617 203.576 491.745 203.264 490.017 202.64C488.313 201.992 486.825 201.08 485.553 199.904C484.305 198.728 483.333 197.336 482.637 195.728C481.941 194.12 481.593 192.344 481.593 190.4C481.593 188.456 481.941 186.68 482.637 185.072C483.333 183.464 484.305 182.072 485.553 180.896C486.825 179.72 488.313 178.82 490.017 178.196C491.745 177.548 493.617 177.224 495.633 177.224C498.105 177.224 500.289 177.656 502.185 178.52C504.105 179.384 505.689 180.632 506.937 182.264L501.573 187.052C500.829 186.116 500.001 185.396 499.089 184.892C498.201 184.364 497.193 184.1 496.065 184.1C495.177 184.1 494.373 184.244 493.653 184.532C492.933 184.82 492.309 185.24 491.781 185.792C491.277 186.344 490.881 187.016 490.593 187.808C490.305 188.576 490.161 189.44 490.161 190.4C490.161 191.36 490.305 192.236 490.593 193.028C490.881 193.796 491.277 194.456 491.781 195.008C492.309 195.56 492.933 195.98 493.653 196.268C494.373 196.556 495.177 196.7 496.065 196.7C497.193 196.7 498.201 196.448 499.089 195.944C500.001 195.416 500.829 194.684 501.573 193.748L506.937 198.536C505.689 200.144 504.105 201.392 502.185 202.28C500.289 203.144 498.105 203.576 495.633 203.576ZM517.058 203.576C515.33 203.576 513.578 203.384 511.802 203C510.026 202.616 508.466 202.052 507.122 201.308L510.002 195.044C511.082 195.668 512.21 196.136 513.386 196.448C514.586 196.736 515.714 196.88 516.77 196.88C517.73 196.88 518.51 196.724 519.11 196.412C519.734 196.076 520.046 195.584 520.046 194.936C520.046 194.384 519.818 193.964 519.362 193.676C518.906 193.364 518.138 193.208 517.058 193.208H513.71V187.988L520.226 181.364L520.982 184.208H508.418V177.8H527.21V183.02L520.694 189.644L516.626 187.34H518.858C522.026 187.34 524.438 188.048 526.094 189.464C527.75 190.88 528.578 192.704 528.578 194.936C528.578 196.376 528.17 197.756 527.354 199.076C526.562 200.396 525.314 201.476 523.61 202.316C521.93 203.156 519.746 203.576 517.058 203.576Z" fill="white"/>
</g>
<g opacity="0.3333">
<path d="M495 240H455C449.477 240 445 244.477 445 250V290C445 295.523 449.477 300 455 300H495C500.523 300 505 295.523 505 290V250C505 244.477 500.523 240 495 240Z" fill="black"/>
<path d="M452.073 283V257.8H465.537C469.017 257.8 471.585 258.424 473.241 259.672C474.897 260.896 475.725 262.468 475.725 264.388C475.725 265.66 475.365 266.8 474.645 267.808C473.949 268.792 472.929 269.572 471.585 270.148C470.241 270.724 468.585 271.012 466.617 271.012L467.337 269.068C469.305 269.068 470.997 269.344 472.413 269.896C473.853 270.448 474.957 271.252 475.725 272.308C476.517 273.34 476.913 274.588 476.913 276.052C476.913 278.236 476.001 279.94 474.177 281.164C472.377 282.388 469.737 283 466.257 283H452.073ZM460.425 277.06H465.537C466.473 277.06 467.169 276.892 467.625 276.556C468.105 276.22 468.345 275.728 468.345 275.08C468.345 274.432 468.105 273.94 467.625 273.604C467.169 273.268 466.473 273.1 465.537 273.1H459.849V267.484H464.385C465.345 267.484 466.041 267.328 466.473 267.016C466.929 266.68 467.157 266.212 467.157 265.612C467.157 264.988 466.929 264.52 466.473 264.208C466.041 263.896 465.345 263.74 464.385 263.74H460.425V277.06ZM487.585 283.576C485.857 283.576 484.105 283.384 482.329 283C480.553 282.616 478.993 282.052 477.649 281.308L480.529 275.044C481.609 275.668 482.737 276.136 483.913 276.448C485.113 276.736 486.241 276.88 487.297 276.88C488.257 276.88 489.037 276.724 489.637 276.412C490.261 276.076 490.573 275.584 490.573 274.936C490.573 274.384 490.345 273.964 489.889 273.676C489.433 273.364 488.665 273.208 487.585 273.208H484.237V267.988L490.753 261.364L491.509 264.208H478.945V257.8H497.737V263.02L491.221 269.644L487.153 267.34H489.385C492.553 267.34 494.965 268.048 496.621 269.464C498.277 270.88 499.105 272.704 499.105 274.936C499.105 276.376 498.697 277.756 497.881 279.076C497.089 280.396 495.841 281.476 494.137 282.316C492.457 283.156 490.273 283.576 487.585 283.576Z" fill="white"/>
</g>
<path d="M555 320H455C449.477 320 445 324.477 445 330V370C445 375.523 449.477 380 455 380H555C560.523 380 565 375.523 565 370V330C565 324.477 560.523 320 555 320Z" fill="black"/>
<path d="M478.582 363L489.598 337.8H497.95L508.966 363H500.182L492.046 341.832H495.358L487.222 363H478.582ZM485.134 358.608L487.294 352.488H498.886L501.046 358.608H485.134ZM518.341 363.576C516.613 363.576 514.861 363.384 513.085 363C511.309 362.616 509.749 362.052 508.405 361.308L511.285 355.044C512.365 355.668 513.493 356.136 514.669 356.448C515.869 356.736 516.997 356.88 518.053 356.88C519.013 356.88 519.793 356.724 520.393 356.412C521.017 356.076 521.329 355.584 521.329 354.936C521.329 354.384 521.101 353.964 520.645 353.676C520.189 353.364 519.421 353.208 518.341 353.208H514.993V347.988L521.509 341.364L522.265 344.208H509.701V337.8H528.493V343.02L521.977 349.644L517.909 347.34H520.141C523.309 347.34 525.721 348.048 527.377 349.464C529.033 350.88 529.861 352.704 529.861 354.936C529.861 356.376 529.453 357.756 528.637 359.076C527.845 360.396 526.597 361.476 524.893 362.316C523.213 363.156 521.029 363.576 518.341 363.576Z" fill="white"/>
<path d="M695 320H595C589.477 320 585 324.477 585 330V370C585 375.523 589.477 380 595 380H695C700.523 380 705 375.523 705 370V330C705 324.477 700.523 320 695 320Z" fill="black"/>
<path d="M617.263 363L628.279 337.8H636.631L647.647 363H638.863L630.727 341.832H634.039L625.903 363H617.263ZM623.815 358.608L625.975 352.488H637.567L639.727 358.608H623.815ZM647.252 358.68V353.28L657.944 337.8H666.656L656.36 353.28L652.4 352.092H671.912V358.68H647.252ZM660.32 363V358.68L660.572 352.092V348.24H668.564V363H660.32Z" fill="white"/>
<g opacity="0.3333">
<path d="M695 240H655C649.477 240 645 244.477 645 250V290C645 295.523 649.477 300 655 300H695C700.523 300 705 295.523 705 290V250C705 244.477 700.523 240 695 240Z" fill="black"/>
<path d="M650.316 283V257.8H663.78C667.26 257.8 669.828 258.424 671.484 259.672C673.14 260.896 673.968 262.468 673.968 264.388C673.968 265.66 673.608 266.8 672.888 267.808C672.192 268.792 671.172 269.572 669.828 270.148C668.484 270.724 666.828 271.012 664.86 271.012L665.58 269.068C667.548 269.068 669.24 269.344 670.656 269.896C672.096 270.448 673.2 271.252 673.968 272.308C674.76 273.34 675.156 274.588 675.156 276.052C675.156 278.236 674.244 279.94 672.42 281.164C670.62 282.388 667.98 283 664.5 283H650.316ZM658.668 277.06H663.78C664.716 277.06 665.412 276.892 665.868 276.556C666.348 276.22 666.588 275.728 666.588 275.08C666.588 274.432 666.348 273.94 665.868 273.604C665.412 273.268 664.716 273.1 663.78 273.1H658.092V267.484H662.628C663.588 267.484 664.284 267.328 664.716 267.016C665.172 266.68 665.4 266.212 665.4 265.612C665.4 264.988 665.172 264.52 664.716 264.208C664.284 263.896 663.588 263.74 662.628 263.74H658.668V277.06ZM676.935 278.68V273.28L687.627 257.8H696.339L686.043 273.28L682.083 272.092H701.595V278.68H676.935ZM690.003 283V278.68L690.255 272.092V268.24H698.247V283H690.003Z" fill="white"/>
</g>
<g opacity="0.3333">
<path d="M695 160H595C589.477 160 585 164.477 585 170V210C585 215.523 589.477 220 595 220H695C700.523 220 705 215.523 705 210V170C705 164.477 700.523 160 695 160Z" fill="black"/>
<path d="M633.875 203.576C631.859 203.576 629.987 203.264 628.259 202.64C626.555 201.992 625.067 201.08 623.795 199.904C622.547 198.728 621.575 197.336 620.879 195.728C620.183 194.12 619.835 192.344 619.835 190.4C619.835 188.456 620.183 186.68 620.879 185.072C621.575 183.464 622.547 182.072 623.795 180.896C625.067 179.72 626.555 178.82 628.259 178.196C629.987 177.548 631.859 177.224 633.875 177.224C636.347 177.224 638.531 177.656 640.427 178.52C642.347 179.384 643.931 180.632 645.179 182.264L639.815 187.052C639.071 186.116 638.243 185.396 637.331 184.892C636.443 184.364 635.435 184.1 634.307 184.1C633.419 184.1 632.615 184.244 631.895 184.532C631.175 184.82 630.551 185.24 630.023 185.792C629.519 186.344 629.123 187.016 628.835 187.808C628.547 188.576 628.403 189.44 628.403 190.4C628.403 191.36 628.547 192.236 628.835 193.028C629.123 193.796 629.519 194.456 630.023 195.008C630.551 195.56 631.175 195.98 631.895 196.268C632.615 196.556 633.419 196.7 634.307 196.7C635.435 196.7 636.443 196.448 637.331 195.944C638.243 195.416 639.071 194.684 639.815 193.748L645.179 198.536C643.931 200.144 642.347 201.392 640.427 202.28C638.531 203.144 636.347 203.576 633.875 203.576ZM646.408 198.68V193.28L657.1 177.8H665.812L655.516 193.28L651.556 192.092H671.068V198.68H646.408ZM659.476 203V198.68L659.728 192.092V188.24H667.72V203H659.476Z" fill="white"/>
</g>
<g opacity="0.3333">
<path d="M275 160H55C49.4772 160 45 164.477 45 170V210C45 215.523 49.4772 220 55 220H275C280.523 220 285 215.523 285 210V170C285 164.477 280.523 160 275 160Z" fill="black"/>
<path d="M158.99 203.576C156.974 203.576 155.102 203.264 153.374 202.64C151.67 201.992 150.182 201.08 148.91 199.904C147.662 198.728 146.69 197.336 145.994 195.728C145.298 194.12 144.95 192.344 144.95 190.4C144.95 188.456 145.298 186.68 145.994 185.072C146.69 183.464 147.662 182.072 148.91 180.896C150.182 179.72 151.67 178.82 153.374 178.196C155.102 177.548 156.974 177.224 158.99 177.224C161.462 177.224 163.646 177.656 165.542 178.52C167.462 179.384 169.046 180.632 170.294 182.264L164.93 187.052C164.186 186.116 163.358 185.396 162.446 184.892C161.558 184.364 160.55 184.1 159.422 184.1C158.534 184.1 157.73 184.244 157.01 184.532C156.29 184.82 155.666 185.24 155.138 185.792C154.634 186.344 154.238 187.016 153.95 187.808C153.662 188.576 153.518 189.44 153.518 190.4C153.518 191.36 153.662 192.236 153.95 193.028C154.238 193.796 154.634 194.456 155.138 195.008C155.666 195.56 156.29 195.98 157.01 196.268C157.73 196.556 158.534 196.7 159.422 196.7C160.55 196.7 161.558 196.448 162.446 195.944C163.358 195.416 164.186 194.684 164.93 193.748L170.294 198.536C169.046 200.144 167.462 201.392 165.542 202.28C163.646 203.144 161.462 203.576 158.99 203.576ZM175.547 203V180.752L179.183 184.208H171.227V177.8H184.043V203H175.547Z" fill="white"/>
</g>
<g opacity="0.3333">
<path d="M275 80H55C49.4772 80 45 84.4772 45 90V130C45 135.523 49.4772 140 55 140H275C280.523 140 285 135.523 285 130V90C285 84.4772 280.523 80 275 80Z" fill="black"/>
<path d="M144.833 123V97.8H157.253C160.061 97.8 162.533 98.316 164.669 99.348C166.805 100.356 168.473 101.796 169.673 103.668C170.873 105.54 171.473 107.772 171.473 110.364C171.473 112.98 170.873 115.236 169.673 117.132C168.473 119.004 166.805 120.456 164.669 121.488C162.533 122.496 160.061 123 157.253 123H144.833ZM153.329 116.376H156.893C158.093 116.376 159.137 116.148 160.025 115.692C160.937 115.236 161.645 114.564 162.149 113.676C162.653 112.764 162.905 111.66 162.905 110.364C162.905 109.092 162.653 108.012 162.149 107.124C161.645 106.236 160.937 105.564 160.025 105.108C159.137 104.652 158.093 104.424 156.893 104.424H153.329V116.376ZM176.672 123V100.752L180.308 104.208H172.352V97.8H185.168V123H176.672Z" fill="white"/>
</g>
<g opacity="0.3333">
<path d="M215 240H115C109.477 240 105 244.477 105 250V290C105 295.523 109.477 300 115 300H215C220.523 300 225 295.523 225 290V250C225 244.477 220.523 240 215 240Z" fill="black"/>
<path d="M145.607 283V257.8H159.071C162.551 257.8 165.119 258.424 166.775 259.672C168.431 260.896 169.259 262.468 169.259 264.388C169.259 265.66 168.899 266.8 168.179 267.808C167.483 268.792 166.463 269.572 165.119 270.148C163.775 270.724 162.119 271.012 160.151 271.012L160.871 269.068C162.839 269.068 164.531 269.344 165.947 269.896C167.387 270.448 168.491 271.252 169.259 272.308C170.051 273.34 170.447 274.588 170.447 276.052C170.447 278.236 169.535 279.94 167.711 281.164C165.911 282.388 163.271 283 159.791 283H145.607ZM153.959 277.06H159.071C160.007 277.06 160.703 276.892 161.159 276.556C161.639 276.22 161.879 275.728 161.879 275.08C161.879 274.432 161.639 273.94 161.159 273.604C160.703 273.268 160.007 273.1 159.071 273.1H153.383V267.484H157.919C158.879 267.484 159.575 267.328 160.007 267.016C160.463 266.68 160.691 266.212 160.691 265.612C160.691 264.988 160.463 264.52 160.007 264.208C159.575 263.896 158.879 263.74 157.919 263.74H153.959V277.06ZM175.898 283V260.752L179.534 264.208H171.578V257.8H184.394V283H175.898Z" fill="white"/>
</g>
<g opacity="0.3333">
<path d="M275 320H175C169.477 320 165 324.477 165 330V370C165 375.523 169.477 380 175 380H275C280.523 380 285 375.523 285 370V330C285 324.477 280.523 320 275 320Z" fill="black"/>
<path d="M203.099 363L214.115 337.8H222.467L233.483 363H224.699L216.563 341.832H219.875L211.739 363H203.099ZM209.651 358.608L211.811 352.488H223.403L225.563 358.608H209.651ZM235.67 363V340.752L239.306 344.208H231.35V337.8H244.166V363H235.67Z" fill="white"/>
</g>
<g opacity="0.3333">
<path d="M415 320H315C309.477 320 305 324.477 305 330V370C305 375.523 309.477 380 315 380H415C420.523 380 425 375.523 425 370V330C425 324.477 420.523 320 415 320Z" fill="black"/>
<path d="M338.863 363L349.879 337.8H358.231L369.247 363H360.463L352.327 341.832H355.639L347.503 363H338.863ZM345.415 358.608L347.575 352.488H359.167L361.327 358.608H345.415ZM369.559 363V357.78L378.667 349.356C379.243 348.804 379.663 348.324 379.927 347.916C380.215 347.508 380.407 347.148 380.503 346.836C380.599 346.5 380.647 346.188 380.647 345.9C380.647 345.276 380.443 344.796 380.035 344.46C379.627 344.1 379.015 343.92 378.199 343.92C377.455 343.92 376.747 344.124 376.075 344.532C375.403 344.916 374.875 345.492 374.491 346.26L368.083 343.056C368.995 341.328 370.363 339.924 372.187 338.844C374.011 337.764 376.279 337.224 378.991 337.224C380.983 337.224 382.747 337.548 384.283 338.196C385.819 338.844 387.019 339.756 387.883 340.932C388.747 342.108 389.179 343.5 389.179 345.108C389.179 345.924 389.071 346.74 388.855 347.556C388.663 348.372 388.255 349.236 387.631 350.148C387.007 351.036 386.083 352.032 384.859 353.136L378.019 359.364L376.687 356.412H389.755V363H369.559Z" fill="white"/>
</g>
<g opacity="0.3333">
<path d="M415 240H375C369.477 240 365 244.477 365 250V290C365 295.523 369.477 300 375 300H415C420.523 300 425 295.523 425 290V250C425 244.477 420.523 240 415 240Z" fill="black"/>
<path d="M372.179 283V257.8H385.643C389.123 257.8 391.691 258.424 393.347 259.672C395.003 260.896 395.831 262.468 395.831 264.388C395.831 265.66 395.471 266.8 394.751 267.808C394.055 268.792 393.035 269.572 391.691 270.148C390.347 270.724 388.691 271.012 386.723 271.012L387.443 269.068C389.411 269.068 391.103 269.344 392.519 269.896C393.959 270.448 395.063 271.252 395.831 272.308C396.623 273.34 397.019 274.588 397.019 276.052C397.019 278.236 396.107 279.94 394.283 281.164C392.483 282.388 389.843 283 386.363 283H372.179ZM380.531 277.06H385.643C386.579 277.06 387.275 276.892 387.731 276.556C388.211 276.22 388.451 275.728 388.451 275.08C388.451 274.432 388.211 273.94 387.731 273.604C387.275 273.268 386.579 273.1 385.643 273.1H379.955V267.484H384.491C385.451 267.484 386.147 267.328 386.579 267.016C387.035 266.68 387.263 266.212 387.263 265.612C387.263 264.988 387.035 264.52 386.579 264.208C386.147 263.896 385.451 263.74 384.491 263.74H380.531V277.06ZM398.979 283V277.78L408.087 269.356C408.663 268.804 409.083 268.324 409.347 267.916C409.635 267.508 409.827 267.148 409.923 266.836C410.019 266.5 410.067 266.188 410.067 265.9C410.067 265.276 409.863 264.796 409.455 264.46C409.047 264.1 408.435 263.92 407.619 263.92C406.875 263.92 406.167 264.124 405.495 264.532C404.823 264.916 404.295 265.492 403.911 266.26L397.503 263.056C398.415 261.328 399.783 259.924 401.607 258.844C403.431 257.764 405.699 257.224 408.411 257.224C410.403 257.224 412.167 257.548 413.703 258.196C415.239 258.844 416.439 259.756 417.303 260.932C418.167 262.108 418.599 263.5 418.599 265.108C418.599 265.924 418.491 266.74 418.275 267.556C418.083 268.372 417.675 269.236 417.051 270.148C416.427 271.036 415.503 272.032 414.279 273.136L407.439 279.364L406.107 276.412H419.175V283H398.979Z" fill="white"/>
</g>
<g opacity="0.3333">
<path d="M415 160H315C309.477 160 305 164.477 305 170V210C305 215.523 309.477 220 315 220H415C420.523 220 425 215.523 425 210V170C425 164.477 420.523 160 415 160Z" fill="black"/>
<path d="M355.738 203.576C353.722 203.576 351.85 203.264 350.122 202.64C348.418 201.992 346.93 201.08 345.658 199.904C344.41 198.728 343.438 197.336 342.742 195.728C342.046 194.12 341.698 192.344 341.698 190.4C341.698 188.456 342.046 186.68 342.742 185.072C343.438 183.464 344.41 182.072 345.658 180.896C346.93 179.72 348.418 178.82 350.122 178.196C351.85 177.548 353.722 177.224 355.738 177.224C358.21 177.224 360.394 177.656 362.29 178.52C364.21 179.384 365.794 180.632 367.042 182.264L361.678 187.052C360.934 186.116 360.106 185.396 359.194 184.892C358.306 184.364 357.298 184.1 356.17 184.1C355.282 184.1 354.478 184.244 353.758 184.532C353.038 184.82 352.414 185.24 351.886 185.792C351.382 186.344 350.986 187.016 350.698 187.808C350.41 188.576 350.266 189.44 350.266 190.4C350.266 191.36 350.41 192.236 350.698 193.028C350.986 193.796 351.382 194.456 351.886 195.008C352.414 195.56 353.038 195.98 353.758 196.268C354.478 196.556 355.282 196.7 356.17 196.7C357.298 196.7 358.306 196.448 359.194 195.944C360.106 195.416 360.934 194.684 361.678 193.748L367.042 198.536C365.794 200.144 364.21 201.392 362.29 202.28C360.394 203.144 358.21 203.576 355.738 203.576ZM368.451 203V197.78L377.559 189.356C378.135 188.804 378.555 188.324 378.819 187.916C379.107 187.508 379.299 187.148 379.395 186.836C379.491 186.5 379.539 186.188 379.539 185.9C379.539 185.276 379.335 184.796 378.927 184.46C378.519 184.1 377.907 183.92 377.091 183.92C376.347 183.92 375.639 184.124 374.967 184.532C374.295 184.916 373.767 185.492 373.383 186.26L366.975 183.056C367.887 181.328 369.255 179.924 371.079 178.844C372.903 177.764 375.171 177.224 377.883 177.224C379.875 177.224 381.639 177.548 383.175 178.196C384.711 178.844 385.911 179.756 386.775 180.932C387.639 182.108 388.071 183.5 388.071 185.108C388.071 185.924 387.963 186.74 387.747 187.556C387.555 188.372 387.147 189.236 386.523 190.148C385.899 191.036 384.975 192.032 383.751 193.136L376.911 199.364L375.579 196.412H388.647V203H368.451Z" fill="white"/>
</g>
<g opacity="0.3333">
<path d="M835 80H735C729.477 80 725 84.4772 725 90V130C725 135.523 729.477 140 735 140H835C840.523 140 845 135.523 845 130V90C845 84.4772 840.523 80 835 80Z" fill="black"/>
<path d="M761.036 123V97.8H773.456C776.264 97.8 778.736 98.316 780.872 99.348C783.008 100.356 784.676 101.796 785.876 103.668C787.076 105.54 787.676 107.772 787.676 110.364C787.676 112.98 787.076 115.236 785.876 117.132C784.676 119.004 783.008 120.456 780.872 121.488C778.736 122.496 776.264 123 773.456 123H761.036ZM769.532 116.376H773.096C774.296 116.376 775.34 116.148 776.228 115.692C777.14 115.236 777.848 114.564 778.352 113.676C778.856 112.764 779.108 111.66 779.108 110.364C779.108 109.092 778.856 108.012 778.352 107.124C777.848 106.236 777.14 105.564 776.228 105.108C775.34 104.652 774.296 104.424 773.096 104.424H769.532V116.376ZM798.843 123.576C797.115 123.576 795.363 123.384 793.587 123C791.811 122.616 790.251 122.052 788.907 121.308L791.787 115.044C792.867 115.668 793.995 116.136 795.171 116.448C796.347 116.736 797.463 116.88 798.519 116.88C799.479 116.88 800.271 116.712 800.895 116.376C801.519 116.04 801.831 115.548 801.831 114.9C801.831 114.54 801.723 114.228 801.507 113.964C801.291 113.676 800.907 113.46 800.355 113.316C799.827 113.172 799.047 113.1 798.015 113.1H790.707L791.967 97.8H808.707V104.208H794.955L799.239 100.572L798.483 110.328L794.199 106.692H800.067C802.563 106.692 804.555 107.052 806.043 107.772C807.555 108.492 808.647 109.464 809.319 110.688C810.015 111.888 810.363 113.232 810.363 114.72C810.363 116.208 809.955 117.636 809.139 119.004C808.347 120.348 807.099 121.452 805.395 122.316C803.715 123.156 801.531 123.576 798.843 123.576Z" fill="white"/>
</g>
<g opacity="0.3333">
<path d="M975 80H875C869.477 80 865 84.4772 865 90V130C865 135.523 869.477 140 875 140H975C980.523 140 985 135.523 985 130V90C985 84.4772 980.523 80 975 80Z" fill="black"/>
<path d="M900.281 123V97.8H912.701C915.509 97.8 917.981 98.316 920.117 99.348C922.253 100.356 923.921 101.796 925.121 103.668C926.321 105.54 926.921 107.772 926.921 110.364C926.921 112.98 926.321 115.236 925.121 117.132C923.921 119.004 922.253 120.456 920.117 121.488C917.981 122.496 915.509 123 912.701 123H900.281ZM908.777 116.376H912.341C913.541 116.376 914.585 116.148 915.473 115.692C916.385 115.236 917.093 114.564 917.597 113.676C918.101 112.764 918.353 111.66 918.353 110.364C918.353 109.092 918.101 108.012 917.597 107.124C917.093 106.236 916.385 105.564 915.473 105.108C914.585 104.652 913.541 104.424 912.341 104.424H908.777V116.376ZM941.111 123.576C938.711 123.576 936.599 123.12 934.775 122.208C932.975 121.272 931.559 119.892 930.527 118.068C929.519 116.22 929.015 113.928 929.015 111.192C929.015 108.24 929.603 105.732 930.779 103.668C931.955 101.58 933.587 99.984 935.675 98.88C937.787 97.776 940.223 97.224 942.983 97.224C944.471 97.224 945.899 97.404 947.267 97.764C948.659 98.1 949.835 98.58 950.795 99.204L947.735 105.144C946.991 104.616 946.235 104.268 945.467 104.1C944.723 103.908 943.955 103.812 943.163 103.812C941.459 103.812 940.091 104.328 939.059 105.36C938.051 106.368 937.547 107.844 937.547 109.788C937.547 110.148 937.547 110.508 937.547 110.868C937.547 111.204 937.547 111.552 937.547 111.912L935.603 110.508C936.083 109.692 936.647 109.008 937.295 108.456C937.943 107.88 938.711 107.448 939.599 107.16C940.487 106.848 941.519 106.692 942.695 106.692C944.231 106.692 945.647 107.028 946.943 107.7C948.263 108.348 949.319 109.272 950.111 110.472C950.927 111.672 951.335 113.1 951.335 114.756C951.335 116.556 950.879 118.116 949.967 119.436C949.055 120.756 947.819 121.776 946.259 122.496C944.723 123.216 943.007 123.576 941.111 123.576ZM940.535 117.708C941.039 117.708 941.483 117.612 941.867 117.42C942.275 117.204 942.587 116.904 942.803 116.52C943.019 116.136 943.127 115.68 943.127 115.152C943.127 114.36 942.887 113.736 942.407 113.28C941.927 112.8 941.303 112.56 940.535 112.56C940.031 112.56 939.587 112.668 939.203 112.884C938.819 113.1 938.507 113.4 938.267 113.784C938.051 114.168 937.943 114.624 937.943 115.152C937.943 115.68 938.051 116.136 938.267 116.52C938.507 116.904 938.819 117.204 939.203 117.42C939.587 117.612 940.031 117.708 940.535 117.708Z" fill="white"/>
</g>
<g opacity="0.3333">
<path d="M555 80H455C449.477 80 445 84.4772 445 90V130C445 135.523 449.477 140 455 140H555C560.523 140 565 135.523 565 130V90C565 84.4772 560.523 80 555 80Z" fill="black"/>
<path d="M481.388 123V97.8H493.808C496.616 97.8 499.088 98.316 501.224 99.348C503.36 100.356 505.028 101.796 506.228 103.668C507.428 105.54 508.028 107.772 508.028 110.364C508.028 112.98 507.428 115.236 506.228 117.132C505.028 119.004 503.36 120.456 501.224 121.488C499.088 122.496 496.616 123 493.808 123H481.388ZM489.884 116.376H493.448C494.648 116.376 495.692 116.148 496.58 115.692C497.492 115.236 498.2 114.564 498.704 113.676C499.208 112.764 499.46 111.66 499.46 110.364C499.46 109.092 499.208 108.012 498.704 107.124C498.2 106.236 497.492 105.564 496.58 105.108C495.692 104.652 494.648 104.424 493.448 104.424H489.884V116.376ZM518.271 123.576C516.543 123.576 514.791 123.384 513.015 123C511.239 122.616 509.679 122.052 508.335 121.308L511.215 115.044C512.295 115.668 513.423 116.136 514.599 116.448C515.799 116.736 516.927 116.88 517.983 116.88C518.943 116.88 519.723 116.724 520.323 116.412C520.947 116.076 521.259 115.584 521.259 114.936C521.259 114.384 521.031 113.964 520.575 113.676C520.119 113.364 519.351 113.208 518.271 113.208H514.923V107.988L521.439 101.364L522.195 104.208H509.631V97.8H528.423V103.02L521.907 109.644L517.839 107.34H520.071C523.239 107.34 525.651 108.048 527.307 109.464C528.963 110.88 529.791 112.704 529.791 114.936C529.791 116.376 529.383 117.756 528.567 119.076C527.775 120.396 526.527 121.476 524.823 122.316C523.143 123.156 520.959 123.576 518.271 123.576Z" fill="white"/>
</g>
<g opacity="0.3333">
<path d="M695 80H595C589.477 80 585 84.4772 585 90V130C585 135.523 589.477 140 595 140H695C700.523 140 705 135.523 705 130V90C705 84.4772 700.523 80 695 80Z" fill="black"/>
<path d="M619.366 123V97.8H631.786C634.594 97.8 637.066 98.316 639.202 99.348C641.338 100.356 643.006 101.796 644.206 103.668C645.406 105.54 646.006 107.772 646.006 110.364C646.006 112.98 645.406 115.236 644.206 117.132C643.006 119.004 641.338 120.456 639.202 121.488C637.066 122.496 634.594 123 631.786 123H619.366ZM627.862 116.376H631.426C632.626 116.376 633.67 116.148 634.558 115.692C635.47 115.236 636.178 114.564 636.682 113.676C637.186 112.764 637.438 111.66 637.438 110.364C637.438 109.092 637.186 108.012 636.682 107.124C636.178 106.236 635.47 105.564 634.558 105.108C633.67 104.652 632.626 104.424 631.426 104.424H627.862V116.376ZM647.885 118.68V113.28L658.577 97.8H667.289L656.993 113.28L653.033 112.092H672.545V118.68H647.885ZM660.953 123V118.68L661.205 112.092V108.24H669.197V123H660.953Z" fill="white"/>
</g>
<g opacity="0.3333">
<path d="M415 80H315C309.477 80 305 84.4772 305 90V130C305 135.523 309.477 140 315 140H415C420.523 140 425 135.523 425 130V90C425 84.4772 420.523 80 415 80Z" fill="black"/>
<path d="M341.406 123V97.8H353.826C356.634 97.8 359.106 98.316 361.242 99.348C363.378 100.356 365.046 101.796 366.246 103.668C367.446 105.54 368.046 107.772 368.046 110.364C368.046 112.98 367.446 115.236 366.246 117.132C365.046 119.004 363.378 120.456 361.242 121.488C359.106 122.496 356.634 123 353.826 123H341.406ZM349.902 116.376H353.466C354.666 116.376 355.71 116.148 356.598 115.692C357.51 115.236 358.218 114.564 358.722 113.676C359.226 112.764 359.478 111.66 359.478 110.364C359.478 109.092 359.226 108.012 358.722 107.124C358.218 106.236 357.51 105.564 356.598 105.108C355.71 104.652 354.666 104.424 353.466 104.424H349.902V116.376ZM369.752 123V117.78L378.86 109.356C379.436 108.804 379.856 108.324 380.12 107.916C380.408 107.508 380.6 107.148 380.696 106.836C380.792 106.5 380.84 106.188 380.84 105.9C380.84 105.276 380.636 104.796 380.228 104.46C379.82 104.1 379.208 103.92 378.392 103.92C377.648 103.92 376.94 104.124 376.268 104.532C375.596 104.916 375.068 105.492 374.684 106.26L368.276 103.056C369.188 101.328 370.556 99.924 372.38 98.844C374.204 97.764 376.472 97.224 379.184 97.224C381.176 97.224 382.94 97.548 384.476 98.196C386.012 98.844 387.212 99.756 388.076 100.932C388.94 102.108 389.372 103.5 389.372 105.108C389.372 105.924 389.264 106.74 389.048 107.556C388.856 108.372 388.448 109.236 387.824 110.148C387.2 111.036 386.276 112.032 385.052 113.136L378.212 119.364L376.88 116.412H389.948V123H369.752Z" fill="white"/>
</g>
<g clip-path="url(#clip0_139_1937)">
<path d="M315 635.011L295.004 620.022L275 635.011L295.012 650L315 635.011Z" fill="#ED1B2D"/>
<path d="M287.463 641.601V628.417H292.683L295.008 636.638L297.334 628.417H302.55V641.601H298.668V637.572L298.726 635.521L298.947 633.138H298.906L296.511 641.601H293.506L291.106 633.138H291.07L291.254 635.083L291.344 637.134V641.601H287.463Z" fill="white"/>
</g>
<g clip-path="url(#clip1_139_1937)">
<path d="M1075 635.011L1055 620.022L1035 635.011L1055.01 650L1075 635.011Z" fill="#ED1B2D"/>
<path d="M1047.46 641.601V628.417H1052.68L1055.01 636.638L1057.33 628.417H1062.55V641.601H1058.67V637.572L1058.73 635.521L1058.95 633.138H1058.91L1056.51 641.601H1053.51L1051.11 633.138H1051.07L1051.25 635.083L1051.34 637.134V641.601H1047.46Z" fill="white"/>
</g>
<g clip-path="url(#clip2_139_1937)">
<path d="M355 620H325V650H355V620Z" fill="#F1832D"/>
<path d="M329.598 623.944H333.089V636.908H340.843V639.848H329.598V623.944Z" fill="white"/>
<path d="M344.013 635.835C344.117 636.353 344.354 636.805 344.725 637.19C345.095 637.575 345.555 637.767 346.104 637.767C346.682 637.767 347.157 637.601 347.527 637.267C347.898 636.933 348.195 636.525 348.417 636.042C348.64 635.56 348.799 635.045 348.896 634.496C348.992 633.947 349.055 633.457 349.085 633.027L349.037 632.982C348.606 633.608 348.102 634.054 347.523 634.322C346.943 634.591 346.275 634.724 345.518 634.724C344.85 634.724 344.196 634.58 343.558 634.29C342.919 634.001 342.377 633.611 341.932 633.121C341.516 632.646 341.211 632.103 341.019 631.495C340.825 630.886 340.729 630.27 340.729 629.646C340.729 628.845 340.859 628.098 341.119 627.408C341.379 626.718 341.75 626.116 342.233 625.604C342.715 625.092 343.291 624.687 343.959 624.39C344.627 624.093 345.37 623.944 346.187 623.944C347.36 623.944 348.333 624.178 349.105 624.646C349.877 625.114 350.494 625.73 350.954 626.495C351.415 627.259 351.734 628.124 351.912 629.089C352.09 630.054 352.179 631.027 352.179 632.006C352.179 632.957 352.068 633.918 351.845 634.89C351.623 635.863 351.267 636.739 350.777 637.518C350.287 638.298 349.656 638.933 348.885 639.423C348.113 639.912 347.17 640.157 346.057 640.157C344.707 640.157 343.571 639.782 342.651 639.032C341.731 638.282 341.182 637.216 341.004 635.835H344.013V635.835ZM346.276 632.334C346.691 632.334 347.059 632.257 347.378 632.101C347.697 631.946 347.961 631.735 348.169 631.468C348.377 631.202 348.532 630.894 348.636 630.546C348.74 630.198 348.792 629.831 348.792 629.446C348.792 629.091 348.737 628.739 348.625 628.391C348.514 628.043 348.351 627.732 348.135 627.458C347.92 627.184 347.656 626.965 347.345 626.802C347.033 626.639 346.676 626.558 346.276 626.558C345.89 626.558 345.552 626.639 345.262 626.802C344.973 626.965 344.724 627.18 344.516 627.447C344.308 627.713 344.152 628.017 344.048 628.358C343.944 628.698 343.892 629.046 343.892 629.402C343.892 629.772 343.941 630.131 344.037 630.479C344.134 630.827 344.279 631.139 344.471 631.413C344.664 631.687 344.913 631.909 345.218 632.079C345.522 632.249 345.875 632.334 346.276 632.334V632.334Z" fill="white"/>
<path d="M331.704 641.961C331.688 641.804 331.621 641.681 331.503 641.594C331.384 641.507 331.224 641.463 331.021 641.463C330.882 641.463 330.766 641.483 330.671 641.522C330.576 641.559 330.503 641.612 330.452 641.68C330.403 641.748 330.378 641.824 330.378 641.91C330.375 641.982 330.39 642.044 330.423 642.098C330.457 642.151 330.503 642.197 330.562 642.236C330.62 642.274 330.688 642.307 330.765 642.336C330.841 642.363 330.924 642.387 331.011 642.406L331.37 642.492C331.545 642.531 331.705 642.583 331.851 642.649C331.996 642.714 332.123 642.794 332.229 642.889C332.336 642.984 332.419 643.096 332.478 643.225C332.537 643.354 332.568 643.501 332.569 643.668C332.568 643.913 332.506 644.125 332.382 644.305C332.259 644.483 332.082 644.622 331.851 644.721C331.62 644.818 331.342 644.867 331.017 644.867C330.694 644.867 330.412 644.818 330.173 644.719C329.935 644.62 329.748 644.473 329.614 644.279C329.481 644.084 329.412 643.843 329.405 643.555H330.224C330.233 643.689 330.271 643.801 330.339 643.891C330.408 643.979 330.5 644.046 330.614 644.092C330.73 644.136 330.861 644.158 331.007 644.158C331.15 644.158 331.274 644.137 331.38 644.096C331.487 644.054 331.569 643.996 331.628 643.922C331.687 643.848 331.716 643.762 331.716 643.666C331.716 643.576 331.689 643.501 331.636 643.44C331.584 643.378 331.507 643.326 331.405 643.283C331.305 643.24 331.182 643.201 331.036 643.166L330.601 643.057C330.263 642.975 329.997 642.846 329.802 642.672C329.606 642.498 329.509 642.262 329.511 641.967C329.509 641.725 329.574 641.513 329.704 641.332C329.836 641.151 330.016 641.01 330.245 640.908C330.474 640.807 330.735 640.756 331.026 640.756C331.323 640.756 331.582 640.807 331.804 640.908C332.026 641.01 332.2 641.151 332.323 641.332C332.447 641.513 332.511 641.723 332.515 641.961H331.704ZM335.046 643.533V641.811H335.878V644.811H335.08V644.266H335.048C334.981 644.442 334.868 644.583 334.71 644.69C334.554 644.796 334.363 644.85 334.138 644.85C333.938 644.85 333.761 644.804 333.609 644.713C333.457 644.622 333.337 644.492 333.251 644.324C333.167 644.156 333.124 643.955 333.123 643.721V641.811H333.955V643.572C333.956 643.749 334.003 643.889 334.097 643.992C334.191 644.095 334.317 644.147 334.474 644.147C334.574 644.147 334.668 644.124 334.755 644.078C334.843 644.031 334.913 643.962 334.966 643.871C335.021 643.78 335.048 643.667 335.046 643.533ZM337.649 644.859C337.422 644.859 337.215 644.801 337.03 644.684C336.847 644.565 336.701 644.391 336.593 644.162C336.486 643.932 336.433 643.649 336.433 643.315C336.433 642.971 336.488 642.685 336.599 642.457C336.709 642.228 336.856 642.057 337.04 641.943C337.225 641.829 337.427 641.772 337.647 641.772C337.815 641.772 337.955 641.8 338.067 641.858C338.181 641.914 338.272 641.984 338.341 642.068C338.411 642.152 338.465 642.234 338.501 642.315H338.526V640.811H339.356V644.811H338.536V644.33H338.501C338.462 644.414 338.407 644.496 338.335 644.578C338.265 644.659 338.173 644.726 338.06 644.779C337.948 644.833 337.811 644.859 337.649 644.859ZM337.913 644.197C338.047 644.197 338.16 644.161 338.253 644.088C338.347 644.014 338.418 643.91 338.468 643.777C338.519 643.645 338.544 643.489 338.544 643.311C338.544 643.132 338.519 642.977 338.47 642.846C338.42 642.714 338.349 642.613 338.255 642.541C338.161 642.47 338.047 642.434 337.913 642.434C337.776 642.434 337.661 642.471 337.567 642.545C337.474 642.619 337.403 642.722 337.354 642.854C337.306 642.985 337.282 643.137 337.282 643.311C337.282 643.485 337.306 643.639 337.354 643.774C337.404 643.906 337.475 644.011 337.567 644.086C337.661 644.16 337.776 644.197 337.913 644.197Z" fill="white"/>
</g>
<g clip-path="url(#clip3_139_1937)">
<path d="M1115 620H1085V650H1115V620Z" fill="#53B955"/>
<path d="M1089.75 626.587V642.491H1101V639.551H1093.25V626.587H1089.75Z" fill="white"/>
<path d="M1104.98 633.148V635.376C1105.36 635.376 1105.77 635.391 1106.18 635.42C1106.61 635.435 1107.01 635.517 1107.36 635.665C1107.72 635.799 1108.01 636.022 1108.23 636.334C1108.47 636.645 1108.59 637.098 1108.59 637.692C1108.59 638.45 1108.34 639.051 1107.85 639.497C1107.36 639.927 1106.76 640.143 1106.05 640.143C1105.59 640.143 1105.19 640.061 1104.84 639.898C1104.52 639.734 1104.24 639.519 1104.02 639.252C1103.8 638.969 1103.63 638.643 1103.51 638.272C1103.39 637.885 1103.32 637.484 1103.31 637.069H1100.3C1100.29 637.975 1100.41 638.776 1100.68 639.474C1100.96 640.172 1101.36 640.766 1101.86 641.256C1102.36 641.732 1102.97 642.095 1103.69 642.348C1104.41 642.6 1105.22 642.727 1106.09 642.727C1106.85 642.727 1107.58 642.615 1108.28 642.392C1108.97 642.17 1109.59 641.843 1110.12 641.412C1110.66 640.982 1111.08 640.447 1111.39 639.808C1111.72 639.17 1111.88 638.442 1111.88 637.626C1111.88 636.735 1111.64 635.97 1111.15 635.331C1110.66 634.693 1109.98 634.277 1109.12 634.084V634.039C1109.85 633.831 1110.39 633.438 1110.75 632.859C1111.12 632.28 1111.3 631.611 1111.3 630.854C1111.3 630.156 1111.15 629.54 1110.84 629.005C1110.52 628.471 1110.12 628.018 1109.61 627.646C1109.12 627.275 1108.56 627 1107.94 626.822C1107.32 626.629 1106.69 626.533 1106.07 626.533C1105.27 626.533 1104.54 626.666 1103.89 626.934C1103.23 627.186 1102.67 627.55 1102.19 628.025C1101.73 628.5 1101.37 629.072 1101.1 629.74C1100.85 630.394 1100.71 631.121 1100.68 631.923H1103.69C1103.67 631.121 1103.86 630.46 1104.27 629.941C1104.68 629.406 1105.29 629.139 1106.09 629.139C1106.67 629.139 1107.18 629.317 1107.63 629.673C1108.07 630.03 1108.3 630.542 1108.3 631.21C1108.3 631.656 1108.19 632.012 1107.96 632.28C1107.76 632.547 1107.48 632.755 1107.14 632.903C1106.81 633.037 1106.46 633.119 1106.07 633.148C1105.68 633.178 1105.32 633.178 1104.98 633.148Z" fill="white"/>
</g>
<path d="M778.968 525.288C776.448 525.288 774.168 524.736 772.128 523.632C770.112 522.504 768.528 520.968 767.376 519.024C766.224 517.056 765.648 514.848 765.648 512.4C765.648 509.952 766.224 507.756 767.376 505.812C768.528 503.844 770.124 502.308 772.164 501.204C774.204 500.076 776.484 499.512 779.004 499.512C780.972 499.512 782.772 499.848 784.404 500.52C786.036 501.168 787.428 502.14 788.58 503.436L786.24 505.704C784.344 503.712 781.98 502.716 779.148 502.716C777.276 502.716 775.584 503.136 774.072 503.976C772.56 504.816 771.372 505.98 770.508 507.468C769.668 508.932 769.248 510.576 769.248 512.4C769.248 514.224 769.668 515.88 770.508 517.368C771.372 518.832 772.56 519.984 774.072 520.824C775.584 521.664 777.276 522.084 779.148 522.084C781.956 522.084 784.32 521.076 786.24 519.06L788.58 521.328C787.428 522.624 786.024 523.608 784.368 524.28C782.736 524.952 780.936 525.288 778.968 525.288ZM815.388 499.8V525H811.788V513.768H797.316V525H793.716V499.8H797.316V510.636H811.788V499.8H815.388ZM841.218 521.868V525H822.93V499.8H840.714V502.932H826.53V510.672H839.166V513.732H826.53V521.868H841.218ZM858.21 525.288C855.69 525.288 853.41 524.736 851.37 523.632C849.354 522.504 847.77 520.968 846.618 519.024C845.466 517.056 844.89 514.848 844.89 512.4C844.89 509.952 845.466 507.756 846.618 505.812C847.77 503.844 849.366 502.308 851.406 501.204C853.446 500.076 855.726 499.512 858.246 499.512C860.214 499.512 862.014 499.848 863.646 500.52C865.278 501.168 866.67 502.14 867.822 503.436L865.482 505.704C863.586 503.712 861.222 502.716 858.39 502.716C856.518 502.716 854.826 503.136 853.314 503.976C851.802 504.816 850.614 505.98 849.75 507.468C848.91 508.932 848.49 510.576 848.49 512.4C848.49 514.224 848.91 515.88 849.75 517.368C850.614 518.832 851.802 519.984 853.314 520.824C854.826 521.664 856.518 522.084 858.39 522.084C861.198 522.084 863.562 521.076 865.482 519.06L867.822 521.328C866.67 522.624 865.266 523.608 863.61 524.28C861.978 524.952 860.178 525.288 858.21 525.288ZM881.166 513.804L876.558 518.484V525H872.958V499.8H876.558V513.876L890.238 499.8H894.342L883.578 511.14L895.026 525H890.814L881.166 513.804ZM908.501 499.8H912.101V525H908.501V499.8ZM941.317 499.8V525H938.365L923.245 506.208V525H919.645V499.8H922.597L937.717 518.592V499.8H941.317Z" fill="black"/>
<path d="M417.483 670.288C415.587 670.288 413.751 670 411.975 669.424C410.223 668.824 408.843 668.056 407.835 667.12L409.167 664.312C410.127 665.176 411.351 665.884 412.839 666.436C414.351 666.964 415.899 667.228 417.483 667.228C419.571 667.228 421.131 666.88 422.163 666.184C423.195 665.464 423.711 664.516 423.711 663.34C423.711 662.476 423.423 661.78 422.847 661.252C422.295 660.7 421.599 660.28 420.759 659.992C419.943 659.704 418.779 659.38 417.267 659.02C415.371 658.564 413.835 658.108 412.659 657.652C411.507 657.196 410.511 656.5 409.671 655.564C408.855 654.604 408.447 653.32 408.447 651.712C408.447 650.368 408.795 649.156 409.491 648.076C410.211 646.996 411.291 646.132 412.731 645.484C414.171 644.836 415.959 644.512 418.095 644.512C419.583 644.512 421.047 644.704 422.487 645.088C423.927 645.472 425.163 646.024 426.195 646.744L425.007 649.624C423.951 648.952 422.823 648.448 421.623 648.112C420.423 647.752 419.247 647.572 418.095 647.572C416.055 647.572 414.519 647.944 413.487 648.688C412.479 649.432 411.975 650.392 411.975 651.568C411.975 652.432 412.263 653.14 412.839 653.692C413.415 654.22 414.123 654.64 414.963 654.952C415.827 655.24 416.991 655.552 418.455 655.888C420.351 656.344 421.875 656.8 423.027 657.256C424.179 657.712 425.163 658.408 425.979 659.344C426.819 660.28 427.239 661.54 427.239 663.124C427.239 664.444 426.879 665.656 426.159 666.76C425.439 667.84 424.347 668.704 422.883 669.352C421.419 669.976 419.619 670.288 417.483 670.288ZM454.171 644.8V670H450.571V658.768H436.099V670H432.499V644.8H436.099V655.636H450.571V644.8H454.171ZM473.09 670.288C470.546 670.288 468.254 669.736 466.214 668.632C464.174 667.504 462.566 665.956 461.39 663.988C460.238 662.02 459.662 659.824 459.662 657.4C459.662 654.976 460.238 652.78 461.39 650.812C462.566 648.844 464.174 647.308 466.214 646.204C468.254 645.076 470.546 644.512 473.09 644.512C475.61 644.512 477.89 645.076 479.93 646.204C481.97 647.308 483.566 648.844 484.718 650.812C485.87 652.756 486.446 654.952 486.446 657.4C486.446 659.848 485.87 662.056 484.718 664.024C483.566 665.968 481.97 667.504 479.93 668.632C477.89 669.736 475.61 670.288 473.09 670.288ZM473.09 667.084C474.938 667.084 476.594 666.664 478.058 665.824C479.546 664.984 480.71 663.832 481.55 662.368C482.414 660.88 482.846 659.224 482.846 657.4C482.846 655.576 482.414 653.932 481.55 652.468C480.71 650.98 479.546 649.816 478.058 648.976C476.594 648.136 474.938 647.716 473.09 647.716C471.242 647.716 469.562 648.136 468.05 648.976C466.562 649.816 465.386 650.98 464.522 652.468C463.682 653.932 463.262 655.576 463.262 657.4C463.262 659.224 463.682 660.88 464.522 662.368C465.386 663.832 466.562 664.984 468.05 665.824C469.562 666.664 471.242 667.084 473.09 667.084ZM526.743 644.8L518.319 670H514.539L507.663 649.876L500.787 670H496.935L488.511 644.8H492.219L499.023 665.284L506.115 644.8H509.427L516.375 665.392L523.323 644.8H526.743ZM549.435 666.868V670H531.147V644.8H548.931V647.932H534.747V655.672H547.383V658.732H534.747V666.868H549.435ZM572.112 670L566.676 662.26C566.004 662.308 565.476 662.332 565.092 662.332H558.864V670H555.264V644.8H565.092C568.356 644.8 570.924 645.58 572.796 647.14C574.668 648.7 575.604 650.848 575.604 653.584C575.604 655.528 575.124 657.184 574.164 658.552C573.204 659.92 571.836 660.916 570.06 661.54L576.036 670H572.112ZM564.984 659.272C567.264 659.272 569.004 658.78 570.204 657.796C571.404 656.812 572.004 655.408 572.004 653.584C572.004 651.76 571.404 650.368 570.204 649.408C569.004 648.424 567.264 647.932 564.984 647.932H558.864V659.272H564.984ZM588.765 670.288C586.869 670.288 585.033 670 583.257 669.424C581.505 668.824 580.125 668.056 579.117 667.12L580.449 664.312C581.409 665.176 582.633 665.884 584.121 666.436C585.633 666.964 587.181 667.228 588.765 667.228C590.853 667.228 592.413 666.88 593.445 666.184C594.477 665.464 594.993 664.516 594.993 663.34C594.993 662.476 594.705 661.78 594.129 661.252C593.577 660.7 592.881 660.28 592.041 659.992C591.225 659.704 590.061 659.38 588.549 659.02C586.653 658.564 585.117 658.108 583.941 657.652C582.789 657.196 581.793 656.5 580.953 655.564C580.137 654.604 579.729 653.32 579.729 651.712C579.729 650.368 580.077 649.156 580.773 648.076C581.493 646.996 582.573 646.132 584.013 645.484C585.453 644.836 587.241 644.512 589.377 644.512C590.865 644.512 592.329 644.704 593.769 645.088C595.209 645.472 596.445 646.024 597.477 646.744L596.289 649.624C595.233 648.952 594.105 648.448 592.905 648.112C591.705 647.752 590.529 647.572 589.377 647.572C587.337 647.572 585.801 647.944 584.769 648.688C583.761 649.432 583.257 650.392 583.257 651.568C583.257 652.432 583.545 653.14 584.121 653.692C584.697 654.22 585.405 654.64 586.245 654.952C587.109 655.24 588.273 655.552 589.737 655.888C591.633 656.344 593.157 656.8 594.309 657.256C595.461 657.712 596.445 658.408 597.261 659.344C598.101 660.28 598.521 661.54 598.521 663.124C598.521 664.444 598.161 665.656 597.441 666.76C596.721 667.84 595.629 668.704 594.165 669.352C592.701 669.976 590.901 670.288 588.765 670.288Z" fill="black"/>
<path d="M855 465L845 475M855 465L865 475M855 465V495" stroke="black" stroke-width="4"/>
<path opacity="0.66" d="M855 460C871.569 460 885 446.569 885 430H825C825 446.569 838.431 460 855 460Z" fill="#FF0000"/>
<path d="M1030 95V425M45 425H980" stroke="#222222" stroke-width="10" stroke-linecap="square"/>
<path opacity="0.75" d="M1077 530L1077 580" stroke="black" stroke-width="20" stroke-dasharray="10 10"/>
<path opacity="0.75" d="M1104.26 546.2C1105.75 546.2 1107.04 546.448 1108.13 546.944C1109.23 547.44 1110.08 548.144 1110.67 549.056C1111.26 549.968 1111.56 551.048 1111.56 552.296C1111.56 553.528 1111.26 554.608 1110.67 555.536C1110.08 556.448 1109.23 557.152 1108.13 557.648C1107.04 558.128 1105.75 558.368 1104.26 558.368H1100.88V563H1096.99V546.2H1104.26ZM1104.05 555.2C1105.22 555.2 1106.1 554.952 1106.71 554.456C1107.32 553.944 1107.62 553.224 1107.62 552.296C1107.62 551.352 1107.32 550.632 1106.71 550.136C1106.1 549.624 1105.22 549.368 1104.05 549.368H1100.88V555.2H1104.05ZM1124.56 559.4H1116.76L1115.27 563H1111.28L1118.77 546.2H1122.61L1130.12 563H1126.04L1124.56 559.4ZM1123.33 556.448L1120.67 550.016L1118 556.448H1123.33ZM1134.5 549.368H1129.13V546.2H1143.77V549.368H1138.39V563H1134.5V549.368ZM1161.27 546.2V563H1157.38V556.112H1149.75V563H1145.86V546.2H1149.75V552.824H1157.38V546.2H1161.27Z" fill="black"/>
<path opacity="0.75" d="M1077 460L1077 510" stroke="black" stroke-width="10"/>
<path opacity="0.75" d="M1122.38 476.2L1116.89 493H1112.71L1109.02 481.624L1105.2 493H1101.05L1095.53 476.2H1099.56L1103.35 488.008L1107.31 476.2H1110.91L1114.75 488.104L1118.66 476.2H1122.38ZM1135.06 489.4H1127.26L1125.77 493H1121.78L1129.27 476.2H1133.11L1140.62 493H1136.54L1135.06 489.4ZM1133.83 486.448L1131.17 480.016L1128.5 486.448H1133.83ZM1142.37 476.2H1146.26V489.832H1154.68V493H1142.37V476.2ZM1156.85 476.2H1160.74V489.832H1169.16V493H1156.85V476.2Z" fill="black"/>
<rect opacity="0.25" x="1049.5" y="442.5" width="133" height="155" rx="7.5" stroke="black" stroke-width="5"/>
<g clip-path="url(#clip4_139_1937)">
<path d="M572.929 604.433H540V611.109H572.929V604.433Z" fill="black"/>
<path d="M573.876 575H570.497C562.349 575 555.623 581.203 554.793 589.135C548.6 589.885 543.657 594.757 542.8 600.917H570.129C569.28 594.822 564.433 589.988 558.331 589.16C559.131 583.16 564.281 578.516 570.497 578.516H573.876C580.644 578.516 586.151 584.022 586.151 590.791V646H589.666V590.791C589.666 582.084 582.583 575 573.876 575Z" fill="black"/>
<path d="M547.119 614.738H543.604V618.731H547.119V614.738Z" fill="black"/>
<path d="M547.119 622.238H543.604V626.231H547.119V622.238Z" fill="black"/>
<path d="M547.119 629.738H543.604V633.731H547.119V629.738Z" fill="black"/>
<path d="M554.51 614.738H550.995V618.731H554.51V614.738Z" fill="black"/>
<path d="M554.51 622.238H550.995V626.231H554.51V622.238Z" fill="black"/>
<path d="M554.51 629.738H550.995V633.731H554.51V629.738Z" fill="black"/>
<path d="M561.901 614.738H558.385V618.731H561.901V614.738Z" fill="black"/>
<path d="M561.901 622.238H558.385V626.231H561.901V622.238Z" fill="black"/>
<path d="M561.901 629.738H558.385V633.731H561.901V629.738Z" fill="black"/>
<path d="M569.292 614.738H565.777V618.731H569.292V614.738Z" fill="black"/>
<path d="M569.292 622.238H565.777V626.231H569.292V622.238Z" fill="black"/>
<path d="M569.292 629.738H565.777V633.731H569.292V629.738Z" fill="black"/>
</g>
<path d="M622 700L604.679 670L639.321 670L622 700Z" fill="#423A3A"/>
<path d="M185.858 691.142L194.824 657.681L219.319 682.176L185.858 691.142Z" fill="#423A3A"/>
<path d="M1006 700L988.679 670L1023.32 670L1006 700Z" fill="#423A3A"/>
<path opacity="0.66" d="M789 290C805.569 290 819 303.431 819 320H759C759 303.431 772.431 290 789 290Z" fill="#FF0000"/>
<path d="M789 285L779 275M789 285L799 275M789 285V255" stroke="black" stroke-width="4"/>
<rect x="623.5" y="215.5" width="331" height="43" rx="8.5" fill="white" stroke="black" stroke-width="3"/>
<path d="M652.162 246.868V250H633.874V224.8H651.658V227.932H637.474V235.672H650.11V238.732H637.474V246.868H652.162ZM679.663 224.8V250H676.711L661.591 231.208V250H657.991V224.8H660.943L676.063 243.592V224.8H679.663ZM692.21 227.932H683.57V224.8H704.414V227.932H695.774V250H692.21V227.932ZM725.183 250L719.747 242.26C719.075 242.308 718.547 242.332 718.163 242.332H711.935V250H708.335V224.8H718.163C721.427 224.8 723.995 225.58 725.867 227.14C727.739 228.7 728.675 230.848 728.675 233.584C728.675 235.528 728.195 237.184 727.235 238.552C726.275 239.92 724.907 240.916 723.131 241.54L729.107 250H725.183ZM718.055 239.272C720.335 239.272 722.075 238.78 723.275 237.796C724.475 236.812 725.075 235.408 725.075 233.584C725.075 231.76 724.475 230.368 723.275 229.408C722.075 228.424 720.335 227.932 718.055 227.932H711.935V239.272H718.055ZM750.547 243.7H737.155L734.383 250H730.675L742.087 224.8H745.651L757.099 250H753.319L750.547 243.7ZM749.287 240.82L743.851 228.472L738.415 240.82H749.287ZM782.53 224.8V250H779.578L764.458 231.208V250H760.858V224.8H763.81L778.93 243.592V224.8H782.53ZM801.341 250.288C798.821 250.288 796.541 249.736 794.501 248.632C792.485 247.504 790.901 245.968 789.749 244.024C788.597 242.056 788.021 239.848 788.021 237.4C788.021 234.952 788.597 232.756 789.749 230.812C790.901 228.844 792.497 227.308 794.537 226.204C796.577 225.076 798.857 224.512 801.377 224.512C803.345 224.512 805.145 224.848 806.777 225.52C808.409 226.168 809.801 227.14 810.953 228.436L808.613 230.704C806.717 228.712 804.353 227.716 801.521 227.716C799.649 227.716 797.957 228.136 796.445 228.976C794.933 229.816 793.745 230.98 792.881 232.468C792.041 233.932 791.621 235.576 791.621 237.4C791.621 239.224 792.041 240.88 792.881 242.368C793.745 243.832 794.933 244.984 796.445 245.824C797.957 246.664 799.649 247.084 801.521 247.084C804.329 247.084 806.693 246.076 808.613 244.06L810.953 246.328C809.801 247.624 808.397 248.608 806.741 249.28C805.109 249.952 803.309 250.288 801.341 250.288ZM834.377 246.868V250H816.089V224.8H833.873V227.932H819.689V235.672H832.325V238.732H819.689V246.868H834.377ZM856.966 219.688H860.098L848.218 253.6H845.086L856.966 219.688ZM890.486 246.868V250H872.198V224.8H889.982V227.932H875.798V235.672H888.434V238.732H875.798V246.868H890.486ZM911.874 250L904.314 239.596L896.862 250H892.722L902.19 237.076L893.298 224.8H897.402L904.458 234.484L911.442 224.8H915.366L906.474 236.968L916.014 250H911.874ZM919.413 224.8H923.013V250H919.413V224.8ZM935.561 227.932H926.921V224.8H947.765V227.932H939.125V250H935.561V227.932Z" fill="black"/>
<path d="M1007 670V65.115C1007 56.2098 1017.76 51.7464 1024.07 58.0384L1094.07 127.934C1095.95 129.806 1098.49 130.857 1101.14 130.857H1107C1112.52 130.857 1117 126.38 1117 120.857V110.889M682 380.46V390.429C682 395.951 686.477 400.429 692 400.429H946.5C952.023 400.429 956.5 395.951 956.5 390.429V380.46M207 670L294.425 582.714C296.088 581.053 298.284 580.031 300.625 579.828L527 560.175H615M1000 450.349H867.053C861.55 450.349 857.082 445.904 857.053 440.402L857 430.381L856.949 440.4C856.921 445.903 852.452 450.349 846.949 450.349H837H632C626.477 450.349 622 454.826 622 460.349V560.175V670M1000 310.073H797C791.477 310.073 787 314.55 787 320.073C787 320.233 787 320.394 787 320.556M707 360.493H727M847 360.493H867M822 382.956V392.94M752 382.956V392.94M892 382.956V392.94" stroke="#423A3A" stroke-width="10" stroke-linejoin="bevel" stroke-dasharray="3 3"/>
<defs>
<clipPath id="clip0_139_1937">
<rect width="40" height="30" fill="white" transform="translate(275 620)"/>
</clipPath>
<clipPath id="clip1_139_1937">
<rect width="40" height="30" fill="white" transform="translate(1035 620)"/>
</clipPath>
<clipPath id="clip2_139_1937">
<rect width="30" height="30" fill="white" transform="translate(325 620)"/>
</clipPath>
<clipPath id="clip3_139_1937">
<rect width="30" height="30" fill="white" transform="translate(1085 620)"/>
</clipPath>
<clipPath id="clip4_139_1937">
<rect width="50" height="71" fill="white" transform="translate(540 575)"/>
</clipPath>
</defs>
</svg>
