<?xml version="1.0" encoding="utf-8"?>
<!-- Generator: Adobe Illustrator 25.2.3, SVG Export Plug-In . SVG Version: 6.00 Build 0)  -->
<svg version="1.1" id="Capa_1" xmlns="http://www.w3.org/2000/svg" xmlns:xlink="http://www.w3.org/1999/xlink" x="0px" y="0px"
	 viewBox="0 0 430 97" style="enable-background:new 0 0 430 97;" xml:space="preserve">
<style type="text/css">
	.st0{fill:#FFFFFF;}
</style>
<path class="st0" d="M0,95.6h13.2V1.4H0V95.6z"/>
<path class="st0" d="M72.7,1.4v66.9L45.1,1.4H31v94.1h12.8V29.3l27.6,66.3h14.1V1.4H72.7z"/>
<path class="st0" d="M127.5,97V84.7c-7.6-1.1-11.7-6.6-11.7-15.4V27.8c0-8.8,4-14.3,11.7-15.5V0c-15.5,1.3-24.9,11.3-24.9,26.8v43.3
	C102.7,85.7,111.9,95.7,127.5,97z M134.6,0v12.3c7.6,1.1,11.7,6.6,11.7,15.8v10h13.2V29C159.5,11,151,1.1,134.6,0z M134.6,84.7V97
	c16.4-1.1,24.9-10.9,24.9-28.8v-9h-13.2v9.8C146.2,78.1,142.2,83.5,134.6,84.7z"/>
<path class="st0" d="M210.2,1.4h-15.7l-24.3,92.1v2h13.5l5.2-20.9h26.8l5.2,20.9h13.5v-2L210.2,1.4z M192,62.7l10.4-42.2l10.4,42.2
	H192z"/>
<path class="st0" d="M246.8,95.6h13.4V56.2H276c17.7,0,27-8.9,27-26v-2.9c0-16.8-9.5-26-27-26h-29.2V95.6z M260.2,44.2V13.6H275
	c9.9,0,14.8,4.7,14.8,13.8v2.9c0,9.9-5.6,13.9-14.8,13.9H260.2z"/>
<path class="st0" d="M329.1,95.6h13.2V13.6h21V1.4h-55.2v12.2h21V95.6z"/>
<path class="st0" d="M398.1,97V84.7c-7.3-1.3-11.5-6.7-11.5-15.4V27.8c0-8.8,4.2-14.2,11.5-15.5V0c-15.4,1.3-24.7,11.3-24.7,26.8
	v43.3C373.3,85.7,382.5,95.7,398.1,97z M405.3,84.7V97c15.4-1.3,24.7-11.3,24.7-26.8V26.8c0-15.4-9.3-25.5-24.7-26.8v12.3
	c7.3,1.3,11.5,6.7,11.5,15.5v41.5C416.8,77.9,412.6,83.4,405.3,84.7z"/>
</svg>
