<svg width="838" height="482" viewBox="0 0 838 482" fill="none" xmlns="http://www.w3.org/2000/svg">
<path d="M88.0947 473.792C136.991 423.327 212.725 389.7 506.417 428.227C662.596 448.78 847.121 371.287 776.731 83.44C706.275 135.099 598.303 -22.084 469.148 98.9626C192.36 -162.929 -154.88 181.923 88.0947 473.792Z" fill="#E12219"/>
<path d="M88.0947 473.792C136.991 423.327 212.725 389.7 506.417 428.227C662.596 448.78 847.121 371.287 776.731 83.44C706.275 135.099 598.303 -22.084 469.148 98.9626C192.36 -162.929 -154.88 181.923 88.0947 473.792Z" stroke="white" stroke-width="10.5373" stroke-miterlimit="10"/>
<path d="M115.239 336.191V381.113C157.414 358.621 193.527 351.373 237.324 346.687C424.766 326.568 609.27 422.103 696.052 312.199C549.1 397.359 360.786 258.589 115.239 336.191ZM420.518 205.359C430.888 205.359 438.636 209.108 441.448 215.667C442.76 218.728 445.383 219.355 448.943 219.355H463.003C465.316 219.355 468.064 217.291 468.064 214.169C468.064 197.611 448.508 182.928 420.518 182.928C391.714 182.928 372.658 196.609 372.658 218.603C372.658 235.224 385.966 245.157 402.335 249.531C409.708 251.469 422.267 254.655 428.451 256.216C435.136 257.905 441.135 260.029 441.135 265.525C441.135 274.585 431.638 277.711 421.206 277.711C411.394 277.711 401.771 273.273 398.959 266.213C397.338 262.153 388.403 261.152 384.091 261.152L375.655 261.591C373.092 261.591 370.408 263.776 370.408 267.025V268.9C370.408 285.02 391.714 301.577 421.206 301.577C442.386 301.577 471.499 293.081 471.499 264.777C471.499 248.593 460.504 237.285 442.946 232.787C435.95 230.976 419.206 226.725 415.518 225.787C409.27 224.101 403.211 222.103 403.211 216.604C403.211 208.232 410.77 205.359 420.518 205.359ZM123.799 299.764H136.483C141.73 299.764 146.042 295.267 146.042 289.895L145.294 193.925C145.294 193.925 197.024 287.333 199.276 291.017C202.274 296.017 207.335 299.764 214.583 299.764H232.452C237.948 299.764 242.26 295.267 242.26 289.895V169.121H458.94C462.628 169.121 465.626 166.184 465.626 162.435V152.563C465.626 148.813 462.628 145.813 458.94 145.813H221.394C216.019 145.813 211.832 150.189 211.832 155.685L212.644 249.031C212.644 249.031 161.414 156.497 158.726 151.751C156.224 147.313 150.79 143.379 143.294 143.379H123.799C118.426 143.379 113.988 147.503 113.988 152.937V289.895C113.988 295.267 118.426 299.764 123.799 299.764ZM617.143 228.913C618.33 216.104 629.823 206.481 643.32 206.481C656.627 206.481 668.374 216.104 669.562 228.913H617.143ZM643.32 182.928C606.707 182.928 586.34 211.481 586.34 241.533C586.34 273.523 608.208 301.639 643.57 301.639C667.626 301.639 691.368 289.143 695.866 268.088C696.43 265.34 694.555 261.591 690.556 261.591H673.435C670.248 261.591 667.751 263.091 666.19 265.4C661.254 272.649 653.94 276.523 643.384 276.523C628.262 276.523 617.767 264.527 616.954 251.469H690.243C696.99 251.469 700.051 247.78 700.051 241.533C700.051 212.231 682.744 182.928 643.32 182.928ZM283.186 228.913C284.311 216.104 295.62 206.481 309.114 206.481C322.674 206.481 334.167 216.104 335.358 228.913H283.186ZM366.032 241.533C366.032 212.231 348.602 182.928 309.114 182.928C272.75 182.928 252.322 211.481 252.322 241.533C252.322 273.523 274.126 301.639 309.366 301.639C333.483 301.639 357.351 289.143 361.848 268.088C362.472 265.34 360.598 261.591 356.599 261.591H339.292C336.106 261.591 333.543 263.091 332.107 265.4C327.235 272.649 319.987 276.523 309.242 276.523C294.055 276.523 283.684 264.527 282.936 251.469H356.224C363.035 251.469 366.032 247.78 366.032 241.533ZM477.187 208.545H483.684V263.401C483.684 282.583 497.804 299.764 520.486 299.764H532.418C536.167 299.764 539.228 296.767 539.228 293.017V282.96C539.228 279.147 536.167 276.085 532.418 276.085L530.543 276.209C519.859 276.209 513.799 269.339 513.799 259.467V208.545H533.668C537.104 208.545 539.976 205.793 539.976 202.297V193.049C539.976 189.549 537.104 186.801 533.668 186.801H513.799V152.937C513.799 148.251 509.926 144.252 505.051 144.252H492.18C487.559 144.252 483.746 148.125 483.746 152.937L483.684 186.801H477.187C473.748 186.801 470.936 189.549 470.936 193.049V202.297C470.936 205.793 473.748 208.545 477.187 208.545ZM598.835 168.308H689.306C693.554 168.308 696.864 165.059 696.864 160.809V149.751C696.864 145.564 693.492 142.003 689.306 142.503C689.306 142.503 601.832 150.873 599.02 151.187C595.774 151.561 593.835 154.188 593.835 156.936V163.497C593.835 166.184 596.084 168.308 598.835 168.308ZM555.099 299.764H568.092C573.028 299.764 577.027 295.765 577.027 290.768V153.251C577.027 148.251 573.028 144.252 568.092 144.252H555.035C550.163 144.252 546.163 148.315 546.163 153.251V290.829C546.163 295.765 550.163 299.764 555.099 299.764Z" fill="white"/>
<path d="M812.699 89.7831H820.263C820.263 89.7831 823.082 89.7631 823.082 92.3791C823.082 92.3791 824.034 95.3604 820.402 95.3604H812.699V89.7831ZM812.699 98.7511H816.147L822.594 108.594H826.92L820.402 98.5978C827.275 98.5978 826.771 92.2537 826.771 92.2537C826.771 87.0044 821.482 86.6618 821.482 86.6618H809.262V108.594H812.699V98.7511Z" fill="white"/>
<path d="M816.963 80.9928C826.177 80.9928 833.536 88.4381 833.536 97.5581C833.536 106.775 826.177 114.187 816.963 114.187C807.768 114.187 800.348 106.775 800.348 97.5581C800.348 88.4381 807.768 80.9928 816.963 80.9928ZM816.963 117.954C828.189 117.954 837.333 108.847 837.333 97.5581C837.333 86.3514 828.189 77.2674 816.963 77.2674C805.705 77.2674 796.613 86.3514 796.613 97.5581C796.613 108.847 805.705 117.954 816.963 117.954Z" fill="white"/>
</svg>
