<svg xmlns="http://www.w3.org/2000/svg" xml:space="preserve" width="514" height="257" viewBox="0 0 514 257"><path fill="#F00" d="M.204986.089006c0 141.823 114.987 256.822 256.815 256.822 141.817 0 256.775-114.999 256.775-256.822h-513.59z"/><path fill="#FFF" d="M228.015986 95.905006c4.339 1.274 8.73 5.265 8.816 9.985.111 7.108-6.051 10.39-11.918 10.39l-1.226.115h-32.654v23.772h32.654l6.56-.037c18.331 0 33.189-14.549 33.189-32.515 0-11.333-4.286-20.994-13.277-26.816l-2.204-1.995c-6.625-3.966-10.677-5.384-10.677-5.384l-8.002-3.454c-7.515-2.549-10.641-4.65-10.641-10.387 0-5.769 4.77-10.431 10.641-10.431l1.213-.131h26.521v-23.739h-26.521l-6.544.021c-18.354 0-33.207 14.578-33.207 32.502 0 11.321 5.896 21.322 14.869 27.136 0 0 11.627 6.522 14.204 7.154l7.806 3.511.398.303z"/><path fill="#FFF" d="M293.973986 119.697006c4.355 1.295 8.743 5.277 8.858 9.964.114 7.129-6.076 10.387-11.932 10.387l-1.204.119h-32.686v23.714h32.686l6.539-.024c18.347 0 33.199-14.524 33.199-32.475 0-11.292-4.277-20.949-13.279-26.758l-2.204-2c-6.67-3.982-10.677-5.396-10.677-5.396l-8.026-3.425c-7.515-2.577-10.633-4.663-10.633-10.402 0-5.765 4.782-10.407 10.633-10.407l1.204-.123h26.537v-23.706h-33.063c-18.343 0-33.186 14.553-33.186 32.466 0 11.316 5.894 21.302 14.867 27.111 0 0 11.615 6.522 14.18 7.153l7.793 3.516.394.286z"/><rect width="24.78" height="91.06" x="336.567986" y="49.107006" fill="#FFF"/><rect width="24.739" height="91.047" x="156.084986" y="49.120006" fill="#FFF"/><path fill="#FFF" d="M65.021986 49.149006v91.034h24.062v-48.31l16.627 26.861c3.572 5.949 9.382 13.394 16.736 17.659 4.45 2.561 11.165 5.002 19.286 5.002v-92.246h-24.058v46.314l-28.197-46.314h-24.456z"/><path fill="#FFF" d="M375.777986 49.149006v91.034h24.083v-48.31l16.602 26.861c3.618 5.949 9.407 13.394 16.737 17.659 4.482 2.561 11.177 5.002 19.326 5.002v-92.246H428.454986v46.314l-28.238-46.314h-24.439z"/></svg>